<svg width="16" height="15" viewBox="0 0 16 15" fill="none" xmlns="http://www.w3.org/2000/svg">
<path id="Union" fill-rule="evenodd" clip-rule="evenodd" d="M14.9774 7.5985C14.9548 7.70008 14.9023 7.79632 14.8198 7.87299L10.9419 11.4785C10.726 11.679 10.3891 11.6667 10.1882 11.4514H10.1881C10.1881 11.4514 10.1881 11.4514 10.1882 11.4514C10.3891 11.6667 10.726 11.679 10.9419 11.4786L14.8198 7.87304C14.9023 7.79635 14.9548 7.7001 14.9774 7.5985ZM13.1018 8.01421L13.1018 8.01417H5.29906C5.00466 8.01417 4.76601 7.77551 4.76601 7.48112C4.76601 7.45114 4.76848 7.42175 4.77323 7.39313C4.76848 7.42176 4.766 7.45117 4.766 7.48116C4.766 7.77555 5.00465 8.01421 5.29905 8.01421H13.1018ZM13.0993 6.94807H13.0994L10.2148 4.26638C10.0934 4.15336 10.0364 3.99716 10.0455 3.84371C10.0364 3.99718 10.0934 4.15339 10.2148 4.26643L13.0993 6.94807ZM11.1843 3.22324C10.8242 2.8889 10.2611 2.90905 9.9262 3.26882C9.59072 3.62924 9.61154 4.1928 9.97163 4.528L12.1907 6.59097H5.29905C4.80741 6.59097 4.40886 6.98952 4.40886 7.48116C4.40886 7.9728 4.80741 8.37135 5.29905 8.37135H12.1929L9.97181 10.4354C9.61106 10.7703 9.59089 11.3345 9.9262 11.6947L10.0321 11.8085H10.0552C10.3927 12.0541 10.8675 12.035 11.1851 11.7401L15.063 8.13459C15.442 7.78224 15.442 7.18237 15.063 6.83001L11.1843 3.22324ZM1.78038 2.373C1.78038 2.04575 2.04572 1.78038 2.37305 1.78038H7.5C7.99164 1.78038 8.39019 1.38183 8.39019 0.890192C8.39019 0.398553 7.99164 0 7.5 0H2.37305C1.0625 0 0 1.06242 0 2.373V12.627C0 13.9376 1.0625 15 2.37305 15H7.5C7.99164 15 8.39019 14.6014 8.39019 14.1098C8.39019 13.6182 7.99164 13.2196 7.5 13.2196H2.37305C2.04572 13.2196 1.78038 12.9542 1.78038 12.627V2.373ZM7.9886 14.3233C7.90628 14.5114 7.71849 14.6428 7.50001 14.6428H2.37306C1.25974 14.6428 0.357154 13.7403 0.357154 12.627V2.37296C0.357154 2.2001 0.378913 2.03232 0.419842 1.87221C0.378906 2.03233 0.357143 2.20012 0.357143 2.373V12.627C0.357143 13.7403 1.25973 14.6429 2.37305 14.6429H7.5C7.7185 14.6429 7.90629 14.5114 7.9886 14.3233ZM1.45242 2.13848C1.55685 1.72738 1.92943 1.42324 2.37305 1.42324H7.5C7.74955 1.42324 7.95905 1.25175 8.01708 1.02019C7.95904 1.25173 7.74955 1.4232 7.50001 1.4232H2.37306C1.92943 1.4232 1.55683 1.72736 1.45242 2.13848Z" fill="#A4B7AD"/>
</svg>
