<svg width="16" height="16" viewBox="0 0 16 16" fill="none" xmlns="http://www.w3.org/2000/svg">
<path id="Vector" d="M6.96735 0.669529L5.38718 4.01175C5.21968 4.36617 4.89508 4.61216 4.52048 4.66908L0.986837 5.20511C0.0428867 5.3481 -0.334305 6.55976 0.348664 7.25436L2.9059 9.8559C3.17727 10.1317 3.30127 10.5295 3.237 10.9191L2.63323 14.5927C2.47223 15.574 3.45903 16.3228 4.30365 15.8593L7.46465 14.1245C7.80029 13.9402 8.20085 13.9402 8.53585 14.1245L11.6968 15.8593C12.5415 16.3228 13.5283 15.574 13.3673 14.5927L12.7635 10.9191C12.6992 10.5295 12.8232 10.1317 13.0946 9.8559L15.6512 7.25504C16.3341 6.55976 15.9576 5.34878 15.013 5.20579L11.4794 4.66976C11.1041 4.61284 10.7802 4.36685 10.6127 4.01243L9.03249 0.670206C8.6105 -0.22295 7.38934 -0.223628 6.96735 0.669529Z" fill="#C8D0CD"/>
</svg>
