<svg width="25" height="25" viewBox="0 0 25 25" fill="none" xmlns="http://www.w3.org/2000/svg">
<path d="M12.1707 25C5.44885 25 -0.000310898 19.4036 -0.000310898 12.5C-0.000310898 5.59644 5.44885 0 12.1707 0C18.8926 0 24.3418 5.59644 24.3418 12.5C24.3418 19.4036 18.8926 25 12.1707 25Z" fill="#854D0C"/>
<path fill-rule="evenodd" clip-rule="evenodd" d="M15.5612 3.22548C15.8796 3.10051 16.239 3.25963 16.3629 3.5815C16.4868 3.90265 16.329 4.26521 16.0099 4.39018L13.445 5.39648C13.1317 5.51927 12.925 5.82443 12.925 6.16373V8.00759H16.8857C17.4398 8.00759 17.889 8.46073 17.889 9.0197C17.889 9.57867 17.4398 10.0318 16.8857 10.0318H7.72014C7.16601 10.0318 6.7168 9.57867 6.7168 9.0197C6.7168 8.46073 7.16601 8.00759 7.72014 8.00759H11.6861V5.54906C11.6861 5.06516 11.9807 4.63067 12.428 4.45484L15.5612 3.22548ZM14.2014 21.1363H10.2147C9.45697 21.1363 8.81593 20.5695 8.71725 19.811L7.44884 10.9177H16.9666L15.6982 19.811C15.5995 20.5688 14.9599 21.1363 14.2014 21.1363Z" fill="white"/>
</svg>
