<svg width="25" height="26" viewBox="0 0 25 26" fill="none" xmlns="http://www.w3.org/2000/svg">
<g id="Group 33743">
<path id="Vector" d="M12.2639 25.1897C5.49102 25.1897 0.000495911 19.5508 0.000495911 12.5949C0.000495911 5.63891 5.49102 0 12.2639 0C19.0368 0 24.5273 5.63891 24.5273 12.5949C24.5273 19.5508 19.0368 25.1897 12.2639 25.1897Z" fill="#EA3333"/>
<path id="Vector_2" d="M11.6921 6.34526L10.4577 8.95614C10.3269 9.233 10.0733 9.42516 9.78067 9.46963L7.02032 9.88837C6.28294 10.0001 5.98829 10.9466 6.5218 11.4892L8.51942 13.5215C8.7314 13.7369 8.82827 14.0477 8.77806 14.3521L8.30642 17.2218C8.18065 17.9883 8.9515 18.5733 9.61129 18.2112L12.0805 16.856C12.3427 16.712 12.6556 16.712 12.9173 16.856L15.3866 18.2112C16.0464 18.5733 16.8172 17.9883 16.6914 17.2218L16.2198 14.3521C16.1696 14.0477 16.2665 13.7369 16.4784 13.5215L18.4756 11.4897C19.0091 10.9466 18.7149 10.0006 17.977 9.8889L15.2167 9.47016C14.9236 9.42569 14.6705 9.23353 14.5397 8.95667L13.3053 6.34579C12.9756 5.64808 12.0222 5.64808 11.6926 6.34579L11.6921 6.34526Z" fill="white"/>
</g>
</svg>
