<svg width="24" height="25" viewBox="0 0 24 25" fill="none" xmlns="http://www.w3.org/2000/svg">
<g id="general-bin">
<path id="Vector" d="M12 25C5.37258 25 0 19.4036 0 12.5C0 5.59644 5.37258 0 12 0C18.6274 0 24 5.59644 24 12.5C24 19.4036 18.6274 25 12 25Z" fill="#0A7B4B"/>
<g id="Group 109">
<path id="Vector_2" d="M17.3791 8.10168H6.52522C6.05825 8.10168 5.67969 8.48565 5.67969 8.95929V8.96086C5.67969 9.4345 6.05825 9.81847 6.52522 9.81847H17.3791C17.8461 9.81847 18.2247 9.4345 18.2247 8.96086V8.95929C18.2247 8.48565 17.8461 8.10168 17.3791 8.10168Z" fill="white"/>
<path id="Vector_3" d="M14.1553 5H9.98812C9.52114 5 9.14258 5.38396 9.14258 5.8576V5.85918C9.14258 6.33282 9.52114 6.71678 9.98812 6.71678H14.1553C14.6223 6.71678 15.0008 6.33282 15.0008 5.85918V5.8576C15.0008 5.38396 14.6223 5 14.1553 5Z" fill="white"/>
<path id="Vector_4" d="M7.06445 11.2034V19.1091C7.06445 20.1413 7.88982 20.9785 8.90757 20.9785H15.2064C16.2242 20.9785 17.0495 20.1413 17.0495 19.1091V11.2034H7.06445ZM10.9213 18.9265C10.9213 19.2743 10.6436 19.556 10.3008 19.556C9.9579 19.556 9.68019 19.2743 9.68019 18.9265V13.2538C9.68019 12.906 9.9579 12.6243 10.3008 12.6243C10.6436 12.6243 10.9213 12.906 10.9213 13.2538V18.9265ZM14.4338 18.9265C14.4338 19.2743 14.1561 19.556 13.8132 19.556C13.4704 19.556 13.1927 19.2743 13.1927 18.9265V13.2538C13.1927 12.906 13.4704 12.6243 13.8132 12.6243C14.1561 12.6243 14.4338 12.906 14.4338 13.2538V18.9265Z" fill="white"/>
</g>
</g>
</svg>
