<svg width="15" height="15" viewBox="0 0 15 15" fill="none" xmlns="http://www.w3.org/2000/svg">
<path id="Vector" d="M6.30698 0.605769L4.87659 3.63124C4.72498 3.95206 4.43114 4.17474 4.09206 4.22627L0.893372 4.7115C0.0389004 4.84093 -0.302535 5.93776 0.315693 6.56653L2.63052 8.92151C2.87617 9.17118 2.98841 9.53127 2.93023 9.884L2.3837 13.2094C2.23796 14.0977 3.13122 14.7755 3.89577 14.3559L6.75714 12.7856C7.06096 12.6187 7.42355 12.6187 7.72679 12.7856L10.5882 14.3559C11.3527 14.7755 12.246 14.0977 12.1002 13.2094L11.5537 9.884C11.4955 9.53127 11.6078 9.17118 11.8534 8.92151L14.1676 6.56714C14.7859 5.93776 14.445 4.84155 13.59 4.71211L10.3913 4.22688C10.0516 4.17536 9.75836 3.95268 9.60674 3.63185L8.17636 0.606382C7.79437 -0.202127 6.68955 -0.202127 6.30757 0.606382L6.30698 0.605769Z" fill="#000"/>
</svg>
