<svg width="42" height="45" viewBox="0 0 42 45" fill="none" xmlns="http://www.w3.org/2000/svg">
<g id="Group 113" filter="url(#filter0_d_774_2621)">
<path id="Vector" d="M3.99978 18.8473C3.99978 9.36919 11.6704 1.71832 21.0231 2.00796C29.5695 2.26987 36.5999 9.30448 37.0106 18.0184C37.4032 26.3472 31.8647 33.428 24.33 35.246C24.0129 35.323 23.7169 35.4801 23.4874 35.7174L21.5848 37.6525C20.9929 38.2533 20.0386 38.2533 19.4467 37.6525L17.5442 35.7174C17.3116 35.4832 17.0187 35.323 16.7016 35.246C9.42056 33.4896 4.0028 26.8155 4.0028 18.8473H3.99978Z" fill="white"/>
<path id="Vector_2" d="M20.464 33.4942C12.6156 33.4942 6.25322 26.9598 6.25322 18.8993C6.25322 10.8388 12.6156 4.30444 20.464 4.30444C28.3124 4.30444 34.6748 10.8388 34.6748 18.8993C34.6748 26.9598 28.3124 33.4942 20.464 33.4942Z" fill="#EA3333"/>
<path id="Vector_3" d="M19.8021 11.6578L18.3717 14.6832C18.2201 15.0041 17.9263 15.2267 17.5872 15.2783L14.3885 15.7635C13.534 15.8929 13.1926 16.9898 13.8108 17.6185L16.1256 19.9735C16.3713 20.2232 16.4835 20.5833 16.4253 20.936L15.8788 24.2614C15.7331 25.1497 16.6263 25.8275 17.3909 25.4079L20.2523 23.8375C20.5561 23.6707 20.9187 23.6707 21.2219 23.8375L24.0833 25.4079C24.8478 25.8275 25.7411 25.1497 25.5953 24.2614L25.0488 20.936C24.9906 20.5833 25.1029 20.2232 25.3485 19.9735L27.6628 17.6191C28.281 16.9898 27.9401 15.8935 27.0851 15.7641L23.8864 15.2789C23.5467 15.2274 23.2535 15.0047 23.1019 14.6838L21.6715 11.6584C21.2895 10.8499 20.1847 10.8499 19.8027 11.6584L19.8021 11.6578Z" fill="white"/>
</g>
<defs>
<filter id="filter0_d_774_2621" x="0" y="0" width="41.0303" height="44.103" filterUnits="userSpaceOnUse" color-interpolation-filters="sRGB">
<feFlood flood-opacity="0" result="BackgroundImageFix"/>
<feColorMatrix in="SourceAlpha" type="matrix" values="0 0 0 0 0 0 0 0 0 0 0 0 0 0 0 0 0 0 127 0" result="hardAlpha"/>
<feOffset dy="2"/>
<feGaussianBlur stdDeviation="2"/>
<feComposite in2="hardAlpha" operator="out"/>
<feColorMatrix type="matrix" values="0 0 0 0 0 0 0 0 0 0 0 0 0 0 0 0 0 0 0.25 0"/>
<feBlend mode="normal" in2="BackgroundImageFix" result="effect1_dropShadow_774_2621"/>
<feBlend mode="normal" in="SourceGraphic" in2="effect1_dropShadow_774_2621" result="shape"/>
</filter>
</defs>
</svg>
