<svg xmlns="http://www.w3.org/2000/svg" width="46" height="50" viewBox="0 0 46 50" fill="none">
  <g filter="url(#filter0_d_774_3063)">
    <path d="M4 21.382C4 10.4779 12.8247 1.67594 23.5845 2.00916C33.4168 2.31047 41.5049 10.4035 41.9774 20.4284C42.4291 30.0102 36.0572 38.1564 27.3889 40.2479C27.0241 40.3365 26.6836 40.5173 26.4196 40.7903L24.2308 43.0164C23.5498 43.7077 22.4519 43.7077 21.771 43.0164L19.5822 40.7903C19.3146 40.5208 18.9776 40.3365 18.6128 40.2479C10.2363 38.2273 4.00348 30.5491 4.00348 21.382H4Z" fill="#FF9900"/>
    <path d="M22.8704 38.2325C13.8412 38.2325 6.52156 30.7151 6.52156 21.4418C6.52156 12.1686 13.8412 4.65112 22.8704 4.65112C31.8996 4.65112 39.2192 12.1686 39.2192 21.4418C39.2192 30.7151 31.8996 38.2325 22.8704 38.2325Z" fill="white"/>
  </g>
  <path fill-rule="evenodd" clip-rule="evenodd" d="M24.1375 14.2458C23.886 13.8258 23.2773 13.8258 23.0258 14.2458L21.1377 17.398C20.7552 18.0366 19.9274 18.2442 19.2888 17.8617C18.6502 17.4791 18.4426 16.6514 18.8251 16.0128L20.713 12.861L20.7131 12.8608C22.0112 10.6932 25.1523 10.6932 26.4503 12.861L28.6287 16.4989L30.2406 15.5336L30.3435 21.9833L24.7055 18.8483L26.3159 17.8839L24.1375 14.2458ZM18.8733 18.5578L18.7705 25.0075L17.1583 24.042L16.1121 25.7894L16.112 25.7895C15.8529 26.2225 16.1651 26.7714 16.6679 26.7714H19.75C20.4944 26.7714 21.0978 27.3749 21.0978 28.1193C21.0978 28.8637 20.4944 29.4671 19.75 29.4671H16.6679C14.0696 29.4671 12.4649 26.6335 13.7992 24.4048L14.8456 22.6571L13.2354 21.6928L18.8733 18.5578ZM30.7178 22.6093C31.3563 22.2267 32.1841 22.4341 32.5668 23.0726L33.3658 24.406C34.7 26.6347 33.0953 29.4683 30.4971 29.4683H27.2724V31.3454L21.6863 28.1196L27.2724 24.8937V26.7726H30.4971C30.9997 26.7726 31.3119 26.2241 31.0532 25.7911L31.0531 25.791L31.0529 25.7906L30.2545 24.4583C29.8718 23.8198 30.0793 22.9919 30.7178 22.6093Z" fill="#FF9900"/>
  <defs>
    <filter id="filter0_d_774_3063" x="0" y="0" width="46" height="49.5349" filterUnits="userSpaceOnUse" color-interpolation-filters="sRGB">
      <feFlood flood-opacity="0" result="BackgroundImageFix"/>
      <feColorMatrix in="SourceAlpha" type="matrix" values="0 0 0 0 0 0 0 0 0 0 0 0 0 0 0 0 0 0 127 0" result="hardAlpha"/>
      <feOffset dy="2"/>
      <feGaussianBlur stdDeviation="2"/>
      <feComposite in2="hardAlpha" operator="out"/>
      <feColorMatrix type="matrix" values="0 0 0 0 0 0 0 0 0 0 0 0 0 0 0 0 0 0 0.25 0"/>
      <feBlend mode="normal" in2="BackgroundImageFix" result="effect1_dropShadow_774_3063"/>
      <feBlend mode="normal" in="SourceGraphic" in2="effect1_dropShadow_774_3063" result="shape"/>
    </filter>
  </defs>
</svg>