<svg width="47" height="50" viewBox="0 0 47 50" fill="none" xmlns="http://www.w3.org/2000/svg">
<g id="Group 33660">
<g id="Group 33651" filter="url(#filter0_d_774_3084)">
<path id="Vector" d="M3.99976 21.599C3.99976 10.5728 12.9233 1.67231 23.8036 2.00926C33.7459 2.31395 41.9247 10.4976 42.4025 20.6348C42.8592 30.3239 36.416 38.5613 27.6506 40.6762C27.2817 40.7658 26.9374 40.9486 26.6704 41.2246L24.4571 43.4758C23.7685 44.1748 22.6583 44.1748 21.9697 43.4758L19.7564 41.2246C19.4859 40.9522 19.1451 40.7658 18.7762 40.6762C10.3059 38.633 4.00328 30.8688 4.00328 21.599H3.99976Z" fill="#515561"/>
<path id="Vector_2" d="M23.0819 38.6384C13.9515 38.6384 6.54994 31.0367 6.54994 21.6596C6.54994 12.2825 13.9515 4.68091 23.0819 4.68091C32.2122 4.68091 39.6138 12.2825 39.6138 21.6596C39.6138 31.0367 32.2122 38.6384 23.0819 38.6384Z" fill="white"/>
</g>
<g id="Group 33652">
<path id="Vector_3" d="M16.0521 14.8242L19.0424 16.8598L16.7667 19.636L13.7764 17.6004C13.3428 17.3051 13.2544 16.7451 13.5778 16.3506L14.6801 15.0058C15.0041 14.6106 15.6186 14.5301 16.0516 14.8248L16.0521 14.8242Z" fill="#515561"/>
<path id="Vector_4" d="M29.4403 20.5582C28.4914 20.5582 27.8518 19.679 28.2141 18.8805C28.3302 18.6245 28.4587 18.4138 28.5721 18.2289C28.8068 17.8454 28.9362 17.6339 28.9362 17.0776C28.9362 16.5213 28.8068 16.3106 28.5721 15.9263C28.277 15.4435 27.873 14.7814 27.873 13.597C27.873 12.4126 28.277 11.7506 28.5721 11.2678C28.6633 11.1184 28.7386 10.9949 28.7962 10.8673C29.0026 10.4136 29.4864 10.1165 30.025 10.1165C30.9739 10.1165 31.6135 10.9957 31.2512 11.7942C31.1351 12.0501 31.0066 12.2608 30.8932 12.4457C30.6585 12.8292 30.5291 13.0408 30.5291 13.5962C30.5291 14.1517 30.6585 14.3632 30.8932 14.7475C31.1883 15.2303 31.5923 15.8924 31.5923 17.0768C31.5923 18.2612 31.1883 18.9233 30.8932 19.4061C30.802 19.5554 30.7267 19.679 30.6691 19.8065C30.4627 20.2603 29.9789 20.5574 29.4403 20.5574V20.5582Z" fill="#515561"/>
<path id="Vector_5" d="M28.4774 23.3196L19.8341 17.4363L17.5581 20.2128L22.2005 23.3729H28.5474C28.5252 23.3543 28.5022 23.3366 28.4774 23.3196Z" fill="#515561"/>
<path id="Vector_6" d="M33.1839 26.1087V24.9792C33.1839 24.6369 32.9083 24.3591 32.569 24.3591H14.8536C14.5143 24.3591 14.2388 24.6369 14.2388 24.9792V26.1087C14.2388 26.451 14.5143 26.7288 14.8536 26.7288H32.5681C32.9075 26.7288 33.183 26.451 33.183 26.1087H33.1839Z" fill="#515561"/>
<path id="Vector_7" d="M15.583 27.4556L16.9527 30.61C17.1184 30.991 17.4922 31.2381 17.9051 31.2381H29.5163C29.9292 31.2381 30.3039 30.9919 30.4687 30.61L31.8384 27.4556H15.583Z" fill="#515561"/>
</g>
</g>
<defs>
<filter id="filter0_d_774_3084" x="0" y="0" width="46.4253" height="50" filterUnits="userSpaceOnUse" color-interpolation-filters="sRGB">
<feFlood flood-opacity="0" result="BackgroundImageFix"/>
<feColorMatrix in="SourceAlpha" type="matrix" values="0 0 0 0 0 0 0 0 0 0 0 0 0 0 0 0 0 0 127 0" result="hardAlpha"/>
<feOffset dy="2"/>
<feGaussianBlur stdDeviation="2"/>
<feComposite in2="hardAlpha" operator="out"/>
<feColorMatrix type="matrix" values="0 0 0 0 0 0 0 0 0 0 0 0 0 0 0 0 0 0 0.25 0"/>
<feBlend mode="normal" in2="BackgroundImageFix" result="effect1_dropShadow_774_3084"/>
<feBlend mode="normal" in="SourceGraphic" in2="effect1_dropShadow_774_3084" result="shape"/>
</filter>
</defs>
</svg>
