<svg width="47" height="50" viewBox="0 0 47 50" fill="none" xmlns="http://www.w3.org/2000/svg">
<g id="Group 33661" filter="url(#filter0_d_774_3094)">
<path id="Vector" d="M3.99976 21.599C3.99976 10.5728 12.9233 1.67231 23.8036 2.00926C33.7459 2.31395 41.9247 10.4976 42.4025 20.6348C42.8592 30.3239 36.416 38.5613 27.6506 40.6762C27.2817 40.7658 26.9374 40.9486 26.6704 41.2246L24.4571 43.4758C23.7685 44.1748 22.6583 44.1748 21.9697 43.4758L19.7564 41.2246C19.4859 40.9522 19.1451 40.7658 18.7762 40.6762C10.3059 38.633 4.00327 30.8688 4.00327 21.599H3.99976Z" fill="#EA3333"/>
<path id="Vector_2" d="M23.1536 38.6384C14.0233 38.6384 6.62172 31.0367 6.62172 21.6596C6.62172 12.2825 14.0233 4.68091 23.1536 4.68091C32.284 4.68091 39.6855 12.2825 39.6855 21.6596C39.6855 31.0367 32.284 38.6384 23.1536 38.6384Z" fill="white"/>
<path id="Vector_3" d="M22.3836 13.2352L20.7196 16.7549C20.5432 17.1281 20.2014 17.3871 19.8069 17.4471L16.0857 18.0116C15.0917 18.1621 14.6945 19.4381 15.4137 20.1696L18.1066 22.9092C18.3924 23.1997 18.523 23.6186 18.4553 24.0289L17.8195 27.8975C17.65 28.9309 18.6891 29.7194 19.5785 29.2313L22.9073 27.4044C23.2607 27.2103 23.6825 27.2103 24.0353 27.4044L27.364 29.2313C28.2535 29.7194 29.2926 28.9309 29.1231 27.8975L28.4873 24.0289C28.4196 23.6186 28.5502 23.1997 28.8359 22.9092L31.5282 20.1703C32.2474 19.4381 31.8509 18.1629 30.8561 18.0123L27.135 17.4478C26.7398 17.3878 26.3987 17.1288 26.2223 16.7556L24.5583 13.2359C24.1139 12.2954 22.8287 12.2954 22.3843 13.2359L22.3836 13.2352Z" fill="#EA3333"/>
</g>
<defs>
<filter id="filter0_d_774_3094" x="0" y="0" width="46.4253" height="50" filterUnits="userSpaceOnUse" color-interpolation-filters="sRGB">
<feFlood flood-opacity="0" result="BackgroundImageFix"/>
<feColorMatrix in="SourceAlpha" type="matrix" values="0 0 0 0 0 0 0 0 0 0 0 0 0 0 0 0 0 0 127 0" result="hardAlpha"/>
<feOffset dy="2"/>
<feGaussianBlur stdDeviation="2"/>
<feComposite in2="hardAlpha" operator="out"/>
<feColorMatrix type="matrix" values="0 0 0 0 0 0 0 0 0 0 0 0 0 0 0 0 0 0 0.25 0"/>
<feBlend mode="normal" in2="BackgroundImageFix" result="effect1_dropShadow_774_3094"/>
<feBlend mode="normal" in="SourceGraphic" in2="effect1_dropShadow_774_3094" result="shape"/>
</filter>
</defs>
</svg>
