<svg xmlns="http://www.w3.org/2000/svg" width="31" height="23" viewBox="0 0 31 23" fill="none">
  <path d="M13.2671 7.30571C13.2671 9.00003 11.8935 10.3736 10.1992 10.3736C8.50487 10.3736 7.13135 9.00003 7.13135 7.30571C7.13135 5.61138 8.50487 4.23785 10.1992 4.23785C11.8935 4.23785 13.2671 5.61138 13.2671 7.30571Z" fill="#D9D9D9"/>
  <path fill-rule="evenodd" clip-rule="evenodd" d="M27.9699 12.7723V15.5652C27.9699 17.7351 26.155 19.4941 23.9164 19.4941H4.82569C2.85469 19.4941 1.21225 18.1306 0.847656 16.3236L4.40525 12.5501C5.02739 11.8902 6.09972 11.8902 6.72187 12.5501L9.17996 15.1574C9.80291 15.8181 10.877 15.8171 11.4986 15.1552L19.6928 6.43007C20.3153 5.76729 21.3911 5.76729 22.0135 6.43007L27.9699 12.7723Z" fill="#D9D9D9"/>
  <path fill-rule="evenodd" clip-rule="evenodd" d="M23.08 1.07061H4.04225C2.34122 1.07061 1.00453 2.49802 1.00453 4.20394V16.1377C1.00453 17.8436 2.34122 19.271 4.04225 19.271H23.08C24.781 19.271 26.1177 17.8436 26.1177 16.1377V4.20394C26.1177 2.49802 24.781 1.07061 23.08 1.07061ZM4.04225 0C1.80978 0 0 1.88217 0 4.20394V16.1377C0 18.4595 1.80978 20.3417 4.04225 20.3417H23.08C25.3124 20.3417 27.1222 18.4595 27.1222 16.1377V4.20394C27.1222 1.88217 25.3124 0 23.08 0H4.04225Z" fill="#D9D9D9"/>
  <g filter="url(#filter0_d_653_2536)">
    <path d="M19.1143 16.5422C19.1143 13.3946 21.6659 10.843 24.8134 10.843C27.961 10.843 30.5126 13.3946 30.5126 16.5422C30.5126 19.6898 27.961 22.2414 24.8134 22.2414C21.6659 22.2414 19.1143 19.6898 19.1143 16.5422Z" fill="#F2F2F2"/>
  </g>
  <path fill-rule="evenodd" clip-rule="evenodd" d="M24.8134 13.5305C24.5758 13.5305 24.3832 13.7138 24.3832 13.9398V19.1447C24.3832 19.3708 24.5758 19.554 24.8134 19.554C25.051 19.554 25.2437 19.3708 25.2437 19.1447V13.9398C25.2437 13.7138 25.051 13.5305 24.8134 13.5305Z" fill="#D9D9D9"/>
  <path fill-rule="evenodd" clip-rule="evenodd" d="M25.5449 13.9398C25.5449 13.5334 25.2031 13.2293 24.8135 13.2293C24.4239 13.2293 24.0821 13.5334 24.0821 13.9398V19.1447C24.0821 19.5511 24.4239 19.8551 24.8135 19.8551C25.2031 19.8551 25.5449 19.5511 25.5449 19.1447V13.9398ZM24.8135 13.8317C24.8992 13.8317 24.9426 13.8941 24.9426 13.9398V19.1447C24.9426 19.1904 24.8992 19.2528 24.8135 19.2528C24.7278 19.2528 24.6844 19.1904 24.6844 19.1447V13.9398C24.6844 13.8941 24.7278 13.8317 24.8135 13.8317Z" fill="#D9D9D9"/>
  <path fill-rule="evenodd" clip-rule="evenodd" d="M27.8247 16.5422C27.8247 16.3046 27.6415 16.1119 27.4154 16.1119H22.2105C21.9845 16.1119 21.8012 16.3046 21.8012 16.5422C21.8012 16.7798 21.9845 16.9724 22.2105 16.9724H27.4154C27.6415 16.9724 27.8247 16.7798 27.8247 16.5422Z" fill="#D9D9D9"/>
  <path fill-rule="evenodd" clip-rule="evenodd" d="M28.126 16.5422C28.126 16.1526 27.8219 15.8107 27.4155 15.8107H22.2106C21.8042 15.8107 21.5002 16.1526 21.5002 16.5422C21.5002 16.9317 21.8042 17.2736 22.2106 17.2736H27.4155C27.8219 17.2736 28.126 16.9317 28.126 16.5422ZM27.4155 16.4131C27.4612 16.4131 27.5236 16.4565 27.5236 16.5422C27.5236 16.6278 27.4612 16.6712 27.4155 16.6712H22.2106C22.1649 16.6712 22.1025 16.6278 22.1025 16.5422C22.1025 16.4565 22.1649 16.4131 22.2106 16.4131H27.4155Z" fill="#D9D9D9"/>
  <defs>
    <filter id="filter0_d_653_2536" x="19.1143" y="10.843" width="11.3984" height="11.3983" filterUnits="userSpaceOnUse" color-interpolation-filters="sRGB">
      <feFlood flood-opacity="0" result="BackgroundImageFix"/>
      <feColorMatrix in="SourceAlpha" type="matrix" values="0 0 0 0 0 0 0 0 0 0 0 0 0 0 0 0 0 0 127 0" result="hardAlpha"/>
      <feOffset/>
      <feComposite in2="hardAlpha" operator="out"/>
      <feColorMatrix type="matrix" values="0 0 0 0 0 0 0 0 0 0 0 0 0 0 0 0 0 0 0.15 0"/>
      <feBlend mode="normal" in2="BackgroundImageFix" result="effect1_dropShadow_653_2536"/>
      <feBlend mode="normal" in="SourceGraphic" in2="effect1_dropShadow_653_2536" result="shape"/>
    </filter>
  </defs>
</svg>