<svg xmlns="http://www.w3.org/2000/svg" width="41" height="44" viewBox="0 0 41 44" fill="none">
  <g filter="url(#filter0_d_1495_24641)">
    <path d="M4.00039 18.7897C4.00039 9.344 11.6448 1.71928 20.9655 2.00793C29.4827 2.26895 36.4891 9.27951 36.8984 17.9636C37.2897 26.2639 31.77 33.3206 24.2611 35.1323C23.9451 35.2091 23.6501 35.3657 23.4214 35.6021L21.5253 37.5306C20.9354 38.1294 19.9844 38.1294 19.3945 37.5306L17.4985 35.6021C17.2667 35.3688 16.9748 35.2091 16.6588 35.1323C9.40263 33.382 4.0034 26.7307 4.0034 18.7897H4.00039Z" fill="white"/>
    <path d="M20.3475 33.3865C12.526 33.3865 6.18533 26.8745 6.18533 18.8415C6.18533 10.8085 12.526 4.29651 20.3475 4.29651C28.1691 4.29651 34.5098 10.8085 34.5098 18.8415C34.5098 26.8745 28.1691 33.3865 20.3475 33.3865Z" fill="#854D0C"/>
  </g>
  <path fill-rule="evenodd" clip-rule="evenodd" d="M24.2913 8.0496C24.6617 7.90418 25.08 8.08933 25.2241 8.46386C25.3683 8.83754 25.1847 9.25941 24.8134 9.40483L21.8289 10.5758C21.4643 10.7186 21.2238 11.0737 21.2238 11.4685V13.614H25.8325C26.4773 13.614 27 14.1413 27 14.7917C27 15.4421 26.4773 15.9694 25.8325 15.9694H15.1675C14.5227 15.9694 14 15.4421 14 14.7917C14 14.1413 14.5227 13.614 15.1675 13.614H19.7822V10.7533C19.7822 10.1902 20.125 9.68467 20.6455 9.48007L24.2913 8.0496ZM22.7089 28.8904H18.0699C17.1882 28.8904 16.4423 28.2309 16.3275 27.3483L14.8516 17H25.9264L24.4505 27.3483C24.3357 28.2301 23.5914 28.8904 22.7089 28.8904Z" fill="white"/>
  <defs>
    <filter id="filter0_d_1495_24641" x="0" y="0" width="40.918" height="43.9797" filterUnits="userSpaceOnUse" color-interpolation-filters="sRGB">
      <feFlood flood-opacity="0" result="BackgroundImageFix"/>
      <feColorMatrix in="SourceAlpha" type="matrix" values="0 0 0 0 0 0 0 0 0 0 0 0 0 0 0 0 0 0 127 0" result="hardAlpha"/>
      <feOffset dy="2"/>
      <feGaussianBlur stdDeviation="2"/>
      <feComposite in2="hardAlpha" operator="out"/>
      <feColorMatrix type="matrix" values="0 0 0 0 0 0 0 0 0 0 0 0 0 0 0 0 0 0 0.25 0"/>
      <feBlend mode="normal" in2="BackgroundImageFix" result="effect1_dropShadow_1495_24641"/>
      <feBlend mode="normal" in="SourceGraphic" in2="effect1_dropShadow_1495_24641" result="shape"/>
    </filter>
  </defs>
</svg>