<svg xmlns="http://www.w3.org/2000/svg" width="41" height="44" viewBox="0 0 41 44" fill="none">
  <g filter="url(#filter0_d_774_2600)">
    <path d="M3.9999 18.7897C3.9999 9.344 11.6443 1.71928 20.9651 2.00793C29.4822 2.26895 36.4886 9.27951 36.8979 17.9636C37.2892 26.2639 31.7695 33.3206 24.2606 35.1323C23.9446 35.2091 23.6496 35.3657 23.4209 35.6021L21.5248 37.5306C20.935 38.1294 19.9839 38.1294 19.394 37.5306L17.498 35.6021C17.2662 35.3688 16.9743 35.2091 16.6583 35.1323C9.40215 33.382 4.00291 26.7307 4.00291 18.7897H3.9999Z" fill="white"/>
    <path d="M20.3466 33.3866C12.525 33.3866 6.18436 26.8746 6.18436 18.8416C6.18436 10.8086 12.525 4.29663 20.3466 4.29663C28.1681 4.29663 34.5088 10.8086 34.5088 18.8416C34.5088 26.8746 28.1681 33.3866 20.3466 33.3866Z" fill="#0A7B4B"/>
    <path d="M26.3962 13.1953H13.8119C13.2705 13.1953 12.8315 13.6405 12.8315 14.1896V14.1915C12.8315 14.7406 13.2705 15.1858 13.8119 15.1858H26.3962C26.9376 15.1858 27.3765 14.7406 27.3765 14.1915V14.1896C27.3765 13.6405 26.9376 13.1953 26.3962 13.1953Z" fill="white"/>
    <path d="M22.6576 9.59912H17.826C17.2846 9.59912 16.8457 10.0443 16.8457 10.5934V10.5953C16.8457 11.1444 17.2846 11.5896 17.826 11.5896H22.6576C23.199 11.5896 23.6379 11.1444 23.6379 10.5953V10.5934C23.6379 10.0443 23.199 9.59912 22.6576 9.59912Z" fill="white"/>
    <path d="M14.4375 16.7915V25.9576C14.4375 27.1544 15.3945 28.125 16.5745 28.125H23.8775C25.0575 28.125 26.0145 27.1544 26.0145 25.9576V16.7915H14.4375ZM18.9093 25.7459C18.9093 26.1491 18.5873 26.4757 18.1898 26.4757C17.7922 26.4757 17.4703 26.1491 17.4703 25.7459V19.1688C17.4703 18.7656 17.7922 18.439 18.1898 18.439C18.5873 18.439 18.9093 18.7656 18.9093 19.1688V25.7459ZM22.9817 25.7459C22.9817 26.1491 22.6597 26.4757 22.2622 26.4757C21.8647 26.4757 21.5427 26.1491 21.5427 25.7459V19.1688C21.5427 18.7656 21.8647 18.439 22.2622 18.439C22.6597 18.439 22.9817 18.7656 22.9817 19.1688V25.7459Z" fill="white"/>
  </g>
  <defs>
    <filter id="filter0_d_774_2600" x="0" y="0" width="40.9175" height="43.9797" filterUnits="userSpaceOnUse" color-interpolation-filters="sRGB">
      <feFlood flood-opacity="0" result="BackgroundImageFix"/>
      <feColorMatrix in="SourceAlpha" type="matrix" values="0 0 0 0 0 0 0 0 0 0 0 0 0 0 0 0 0 0 127 0" result="hardAlpha"/>
      <feOffset dy="2"/>
      <feGaussianBlur stdDeviation="2"/>
      <feComposite in2="hardAlpha" operator="out"/>
      <feColorMatrix type="matrix" values="0 0 0 0 0 0 0 0 0 0 0 0 0 0 0 0 0 0 0.25 0"/>
      <feBlend mode="normal" in2="BackgroundImageFix" result="effect1_dropShadow_774_2600"/>
      <feBlend mode="normal" in="SourceGraphic" in2="effect1_dropShadow_774_2600" result="shape"/>
    </filter>
  </defs>
</svg>