<svg xmlns="http://www.w3.org/2000/svg" width="28" height="21" viewBox="0 0 28 21" fill="none">
<path fill-rule="evenodd" clip-rule="evenodd" d="M4.04225 1.07061H23.08C24.781 1.07061 26.1177 2.49802 26.1177 4.20394V10.8007L22.0135 6.43068C21.3911 5.7679 20.3153 5.7679 19.6928 6.43068L11.4986 15.1558C10.877 15.8177 9.80291 15.8187 9.17996 15.158L6.72187 12.5507C6.09972 11.8908 5.02739 11.8908 4.40525 12.5507L1.00459 16.1577L1.00453 16.1377V4.20394C1.00453 2.49802 2.34122 1.07061 4.04225 1.07061ZM0 4.20394C0 1.88217 1.80978 0 4.04225 0H23.08C25.3124 0 27.1222 1.88217 27.1222 4.20394V16.1377C27.1222 18.4595 25.3124 20.3417 23.08 20.3417H4.04225C1.80978 20.3417 0 18.4595 0 16.1377V4.20394ZM10.1992 10.374C11.8935 10.374 13.2671 9.00046 13.2671 7.30613C13.2671 5.61181 11.8935 4.23828 10.1992 4.23828C8.50487 4.23828 7.13135 5.61181 7.13135 7.30613C7.13135 9.00046 8.50487 10.374 10.1992 10.374Z" fill="#D9D9D9"/>
</svg>