<svg xmlns="http://www.w3.org/2000/svg" width="14" height="17" viewBox="0 0 14 17" fill="none">
  <path d="M7 0C3.13349 0 0 3.1775 0 7.09832C0 7.64587 0.0629496 8.17924 0.179057 8.69132C0.465827 9.95949 1.55136 11.4177 2.16127 12.2235C2.77118 13.0306 4.01059 14.6491 5.08213 16.0478C6.05576 17.3174 7.94704 17.3174 8.91926 16.0478C9.99081 14.6491 11.2288 13.0306 11.8387 12.2249C12.4486 11.4192 13.5342 9.95949 13.8209 8.69132C13.937 8.17924 14 7.64587 14 7.09832C14 3.1775 10.8665 0 7 0ZM9.91247 7.77921C9.78937 8.32109 9.52498 8.80622 9.15847 9.19348L9.06615 9.28711C8.52898 9.80771 7.80156 10.1297 7 10.1297C6.19844 10.1297 5.47102 9.80912 4.93385 9.28711L4.84153 9.19348C4.47502 8.80622 4.21063 8.31967 4.08753 7.77921C4.01898 7.47848 3.9938 7.16073 4.02318 6.83163C4.15747 5.31097 5.42486 4.1038 6.93006 4.06834C8.61291 4.02862 9.98941 5.40034 9.98941 7.09832C9.98941 7.33237 9.96283 7.55934 9.91247 7.77921Z" fill="#FF3232"/>
</svg>