<svg xmlns="http://www.w3.org/2000/svg" width="41" height="44" viewBox="0 0 41 44" fill="none">
  <g filter="url(#filter0_d_1495_24661)">
    <path d="M4.00039 18.7897C4.00039 9.344 11.6448 1.71928 20.9655 2.00793C29.4827 2.26895 36.4891 9.27951 36.8984 17.9636C37.2897 26.2639 31.77 33.3206 24.2611 35.1323C23.9451 35.2091 23.6501 35.3657 23.4214 35.6021L21.5253 37.5306C20.9354 38.1294 19.9844 38.1294 19.3945 37.5306L17.4985 35.6021C17.2667 35.3688 16.9748 35.2091 16.6588 35.1323C9.40263 33.382 4.0034 26.7307 4.0034 18.7897H4.00039Z" fill="white"/>
    <path d="M20.3475 33.3865C12.526 33.3865 6.18533 26.8745 6.18533 18.8415C6.18533 10.8085 12.526 4.29651 20.3475 4.29651C28.1691 4.29651 34.5098 10.8085 34.5098 18.8415C34.5098 26.8745 28.1691 33.3865 20.3475 33.3865Z" fill="#FF9900"/>
  </g>
  <path fill-rule="evenodd" clip-rule="evenodd" d="M21.4442 12.608C21.2263 12.2442 20.699 12.2442 20.4811 12.608L18.8456 15.3386C18.5142 15.8918 17.7972 16.0716 17.244 15.7403C16.6908 15.4089 16.5109 14.6918 16.8423 14.1387L18.4777 11.4084L18.4778 11.4083C19.6022 9.53053 22.3232 9.53058 23.4476 11.4084L25.3344 14.5595L26.7308 13.7233L26.8199 19.3104L21.9359 16.5947L23.3311 15.7592L21.4442 12.608ZM16.8839 16.3429L16.7948 21.93L15.3984 21.0937L14.492 22.6075L14.492 22.6076C14.2675 22.9827 14.538 23.4582 14.9735 23.4582H17.6434C18.2882 23.4582 18.8109 23.9809 18.8109 24.6257C18.8109 25.2706 18.2882 25.7933 17.6434 25.7933H14.9735C12.7228 25.7933 11.3327 23.3387 12.4885 21.4081L13.395 19.894L12 19.0586L16.8839 16.3429ZM27.1443 19.8527C27.6975 19.5212 28.4146 19.7009 28.746 20.2541L29.4382 21.4091C30.594 23.3397 29.2039 25.7944 26.9531 25.7944H24.1599V27.4202L19.321 24.6258L24.1599 21.8314V23.4592H26.9531C27.3885 23.4592 27.659 22.984 27.4349 22.609L27.4348 22.6088L27.4346 22.6085L26.743 21.4544C26.4115 20.9012 26.5912 20.1842 27.1443 19.8527Z" fill="white"/>
  <defs>
    <filter id="filter0_d_1495_24661" x="0" y="0" width="40.918" height="43.9797" filterUnits="userSpaceOnUse" color-interpolation-filters="sRGB">
      <feFlood flood-opacity="0" result="BackgroundImageFix"/>
      <feColorMatrix in="SourceAlpha" type="matrix" values="0 0 0 0 0 0 0 0 0 0 0 0 0 0 0 0 0 0 127 0" result="hardAlpha"/>
      <feOffset dy="2"/>
      <feGaussianBlur stdDeviation="2"/>
      <feComposite in2="hardAlpha" operator="out"/>
      <feColorMatrix type="matrix" values="0 0 0 0 0 0 0 0 0 0 0 0 0 0 0 0 0 0 0.25 0"/>
      <feBlend mode="normal" in2="BackgroundImageFix" result="effect1_dropShadow_1495_24661"/>
      <feBlend mode="normal" in="SourceGraphic" in2="effect1_dropShadow_1495_24661" result="shape"/>
    </filter>
  </defs>
</svg>