<svg width="47" height="50" viewBox="0 0 47 50" fill="none" xmlns="http://www.w3.org/2000/svg">
<g id="Group 33659">
<g id="Group 33462" filter="url(#filter0_d_774_3075)">
<path id="Vector" d="M3.99976 21.599C3.99976 10.5728 12.9233 1.67231 23.8036 2.00926C33.7459 2.31395 41.9247 10.4976 42.4025 20.6348C42.8592 30.3239 36.416 38.5613 27.6506 40.6762C27.2817 40.7658 26.9374 40.9486 26.6704 41.2246L24.4571 43.4758C23.7685 44.1748 22.6583 44.1748 21.9697 43.4758L19.7564 41.2246C19.4859 40.9522 19.1451 40.7658 18.7762 40.6762C10.3059 38.633 4.00328 30.8688 4.00328 21.599H3.99976Z" fill="#854D0C"/>
<path id="Vector_2" d="M23.0819 38.6384C13.9515 38.6384 6.54994 31.0367 6.54994 21.6596C6.54994 12.2825 13.9515 4.68091 23.0819 4.68091C32.2122 4.68091 39.6138 12.2825 39.6138 21.6596C39.6138 31.0367 32.2122 38.6384 23.0819 38.6384Z" fill="white"/>
</g>
<path id="Union" fill-rule="evenodd" clip-rule="evenodd" d="M27.6866 9.0618C28.1191 8.89205 28.6072 9.10818 28.7755 9.54538C28.9438 9.98159 28.7295 10.4741 28.2961 10.6438L24.8122 12.0107C24.3866 12.1774 24.1058 12.5919 24.1058 13.0528V15.5573H29.4857C30.2384 15.5573 30.8486 16.1728 30.8486 16.932C30.8486 17.6913 30.2384 18.3068 29.4857 18.3068H17.0362C16.2835 18.3068 15.6733 17.6913 15.6733 16.932C15.6733 16.1728 16.2835 15.5573 17.0362 15.5573H22.4231V12.2179C22.4231 11.5606 22.8232 10.9705 23.4308 10.7316L27.6866 9.0618ZM25.8394 33.3898H20.4243C19.395 33.3898 18.5243 32.62 18.3903 31.5897L16.6674 19.5098H29.5953L27.8725 31.5897C27.7384 32.619 26.8697 33.3898 25.8394 33.3898Z" fill="#854D0C"/>
</g>
<defs>
<filter id="filter0_d_774_3075" x="0" y="0" width="46.4253" height="50" filterUnits="userSpaceOnUse" color-interpolation-filters="sRGB">
<feFlood flood-opacity="0" result="BackgroundImageFix"/>
<feColorMatrix in="SourceAlpha" type="matrix" values="0 0 0 0 0 0 0 0 0 0 0 0 0 0 0 0 0 0 127 0" result="hardAlpha"/>
<feOffset dy="2"/>
<feGaussianBlur stdDeviation="2"/>
<feComposite in2="hardAlpha" operator="out"/>
<feColorMatrix type="matrix" values="0 0 0 0 0 0 0 0 0 0 0 0 0 0 0 0 0 0 0.25 0"/>
<feBlend mode="normal" in2="BackgroundImageFix" result="effect1_dropShadow_774_3075"/>
<feBlend mode="normal" in="SourceGraphic" in2="effect1_dropShadow_774_3075" result="shape"/>
</filter>
</defs>
</svg>
