<svg width="41" height="44" viewBox="0 0 41 44" fill="none" xmlns="http://www.w3.org/2000/svg">
<g id="Group 33657">
<g id="Group 33651" filter="url(#filter0_d_774_3042)">
<path id="Vector" d="M3.9999 18.7897C3.9999 9.344 11.6443 1.71928 20.9651 2.00793C29.4822 2.26895 36.4886 9.27951 36.8979 17.9636C37.2892 26.2639 31.7695 33.3206 24.2606 35.1323C23.9446 35.2091 23.6496 35.3657 23.4209 35.6021L21.5248 37.5306C20.935 38.1294 19.9839 38.1294 19.394 37.5306L17.498 35.6021C17.2662 35.3688 16.9743 35.2091 16.6583 35.1323C9.40215 33.382 4.00291 26.7307 4.00291 18.7897H3.9999Z" fill="white"/>
<path id="Vector_2" d="M20.3466 33.3866C12.525 33.3866 6.18436 26.8746 6.18436 18.8416C6.18436 10.8086 12.525 4.29663 20.3466 4.29663C28.1681 4.29663 34.5088 10.8086 34.5088 18.8416C34.5088 26.8746 28.1681 33.3866 20.3466 33.3866Z" fill="#515561"/>
</g>
<g id="Group 33652">
<path id="Vector_3" d="M14.3243 12.9859L16.886 14.7297L14.9365 17.108L12.3749 15.3641C12.0034 15.1112 11.9277 14.6315 12.2048 14.2935L13.149 13.1415C13.4266 12.8029 13.953 12.7339 14.3239 12.9864L14.3243 12.9859Z" fill="#EFEFEF"/>
<path id="Vector_4" d="M25.7938 17.8979C24.9809 17.8979 24.433 17.1447 24.7434 16.4607C24.8428 16.2414 24.9528 16.0609 25.05 15.9025C25.2511 15.574 25.3619 15.3928 25.3619 14.9162C25.3619 14.4397 25.2511 14.2592 25.05 13.9299C24.7973 13.5163 24.4512 12.9492 24.4512 11.9346C24.4512 10.9199 24.7973 10.3528 25.05 9.93916C25.1282 9.81121 25.1927 9.70539 25.242 9.59611C25.4188 9.20741 25.8332 8.95288 26.2947 8.95288C27.1075 8.95288 27.6555 9.70608 27.3451 10.3901C27.2456 10.6094 27.1356 10.7899 27.0385 10.9483C26.8373 11.2768 26.7265 11.458 26.7265 11.9339C26.7265 12.4097 26.8373 12.5909 27.0385 12.9201C27.2912 13.3337 27.6373 13.9009 27.6373 14.9155C27.6373 15.9302 27.2912 16.4973 27.0385 16.9109C26.9603 17.0389 26.8958 17.1447 26.8464 17.254C26.6696 17.6427 26.2552 17.8972 25.7938 17.8972V17.8979Z" fill="#EFEFEF"/>
<path id="Vector_5" d="M24.9689 20.2634L17.5645 15.2234L15.6147 17.6019L19.5917 20.309H25.0288C25.0098 20.2931 24.9901 20.2779 24.9689 20.2634Z" fill="#EFEFEF"/>
<path id="Vector_6" d="M29.0005 22.6528V21.6852C29.0005 21.392 28.7645 21.1541 28.4738 21.1541H13.2977C13.007 21.1541 12.771 21.392 12.771 21.6852V22.6528C12.771 22.9461 13.007 23.184 13.2977 23.184H28.473C28.7637 23.184 28.9997 22.9461 28.9997 22.6528H29.0005Z" fill="#EFEFEF"/>
<path id="Vector_7" d="M13.9229 23.8066L15.0962 26.5089C15.2381 26.8353 15.5584 27.047 15.9121 27.047H25.8589C26.2126 27.047 26.5336 26.836 26.6748 26.5089L27.8482 23.8066H13.9229Z" fill="#EFEFEF"/>
</g>
</g>
<defs>
<filter id="filter0_d_774_3042" x="0" y="0" width="40.9175" height="43.9797" filterUnits="userSpaceOnUse" color-interpolation-filters="sRGB">
<feFlood flood-opacity="0" result="BackgroundImageFix"/>
<feColorMatrix in="SourceAlpha" type="matrix" values="0 0 0 0 0 0 0 0 0 0 0 0 0 0 0 0 0 0 127 0" result="hardAlpha"/>
<feOffset dy="2"/>
<feGaussianBlur stdDeviation="2"/>
<feComposite in2="hardAlpha" operator="out"/>
<feColorMatrix type="matrix" values="0 0 0 0 0 0 0 0 0 0 0 0 0 0 0 0 0 0 0.25 0"/>
<feBlend mode="normal" in2="BackgroundImageFix" result="effect1_dropShadow_774_3042"/>
<feBlend mode="normal" in="SourceGraphic" in2="effect1_dropShadow_774_3042" result="shape"/>
</filter>
</defs>
</svg>
