<svg xmlns="http://www.w3.org/2000/svg" width="47" height="50" viewBox="0 0 47 50" fill="none">
  <g filter="url(#filter0_d_774_3056)">
    <path d="M3.9998 21.5895C3.9998 10.5687 12.919 1.67247 23.7941 2.00926C33.7316 2.3138 41.9063 10.4935 42.3839 20.6258C42.8404 30.3102 36.4003 38.5436 27.6392 40.6575C27.2705 40.7471 26.9263 40.9298 26.6595 41.2057L24.4472 43.4557C23.759 44.1543 22.6493 44.1543 21.9611 43.4557L19.7488 41.2057C19.4785 40.9334 19.1378 40.7471 18.7691 40.6575C10.3029 38.6153 4.00331 30.8548 4.00331 21.5895H3.9998Z" fill="#0A7B4B"/>
    <path d="M23.0728 38.6205C13.9469 38.6205 6.54885 31.0225 6.54885 21.6499C6.54885 12.2774 13.9469 4.67944 23.0728 4.67944C32.1987 4.67944 39.5967 12.2774 39.5967 21.6499C39.5967 31.0225 32.1987 38.6205 23.0728 38.6205Z" fill="white"/>
    <path d="M31.2789 14.3232H14.3102C13.5801 14.3232 12.9883 14.9812 12.9883 15.7928V15.7955C12.9883 16.6072 13.5801 17.2651 14.3102 17.2651H31.2789C32.0089 17.2651 32.6007 16.6072 32.6007 15.7955V15.7928C32.6007 14.9812 32.0089 14.3232 31.2789 14.3232Z" fill="#0A7B4B"/>
    <path d="M27.1216 9.42017H19.4485C18.5886 9.42017 17.8916 10.0781 17.8916 10.8898V10.8924C17.8916 11.7041 18.5886 12.362 19.4485 12.362H27.1216C27.9814 12.362 28.6785 11.7041 28.6785 10.8924V10.8898C28.6785 10.0781 27.9814 9.42017 27.1216 9.42017Z" fill="#0A7B4B"/>
    <path d="M15.5161 19.0342V30.7982C15.5161 32.3343 16.7443 33.58 18.2588 33.58H27.6318C29.1462 33.58 30.3744 32.3343 30.3744 30.7982V19.0342H15.5161ZM21.2554 30.5266C21.2554 31.0441 20.8421 31.4633 20.3319 31.4633C19.8217 31.4633 19.4085 31.0441 19.4085 30.5266V22.0853C19.4085 21.5678 19.8217 21.1486 20.3319 21.1486C20.8421 21.1486 21.2554 21.5678 21.2554 22.0853V30.5266ZM26.4821 30.5266C26.4821 31.0441 26.0688 31.4633 25.5586 31.4633C25.0484 31.4633 24.6352 31.0441 24.6352 30.5266V22.0853C24.6352 21.5678 25.0484 21.1486 25.5586 21.1486C26.0688 21.1486 26.4821 21.5678 26.4821 22.0853V30.5266Z" fill="#0A7B4B"/>
  </g>
  <defs>
    <filter id="filter0_d_774_3056" x="0" y="0" width="46.4067" height="49.9797" filterUnits="userSpaceOnUse" color-interpolation-filters="sRGB">
      <feFlood flood-opacity="0" result="BackgroundImageFix"/>
      <feColorMatrix in="SourceAlpha" type="matrix" values="0 0 0 0 0 0 0 0 0 0 0 0 0 0 0 0 0 0 127 0" result="hardAlpha"/>
      <feOffset dy="2"/>
      <feGaussianBlur stdDeviation="2"/>
      <feComposite in2="hardAlpha" operator="out"/>
      <feColorMatrix type="matrix" values="0 0 0 0 0.784314 0 0 0 0 0.815686 0 0 0 0 0.803922 0 0 0 1 0"/>
      <feBlend mode="normal" in2="BackgroundImageFix" result="effect1_dropShadow_774_3056"/>
      <feBlend mode="normal" in="SourceGraphic" in2="effect1_dropShadow_774_3056" result="shape"/>
    </filter>
  </defs>
</svg>