<svg width="41" height="44" viewBox="0 0 41 44" fill="none" xmlns="http://www.w3.org/2000/svg">
<g filter="url(#filter0_d_774_3041)">
<path d="M3.9999 18.7897C3.9999 9.344 11.6443 1.71928 20.9651 2.00793C29.4822 2.26895 36.4886 9.27951 36.8979 17.9636C37.2892 26.2639 31.7695 33.3206 24.2606 35.1323C23.9446 35.2091 23.6496 35.3657 23.4209 35.6021L21.5248 37.5306C20.935 38.1294 19.9839 38.1294 19.394 37.5306L17.498 35.6021C17.2662 35.3688 16.9743 35.2091 16.6583 35.1323C9.40215 33.382 4.00291 26.7307 4.00291 18.7897H3.9999Z" fill="white"/>
<path d="M20.3466 33.3866C12.525 33.3866 6.18436 26.8746 6.18436 18.8416C6.18436 10.8086 12.525 4.29663 20.3466 4.29663C28.1681 4.29663 34.5088 10.8086 34.5088 18.8416C34.5088 26.8746 28.1681 33.3866 20.3466 33.3866Z" fill="#854D0C"/>
</g>
<path fill-rule="evenodd" clip-rule="evenodd" d="M24.2913 8.0496C24.6617 7.90418 25.08 8.08933 25.2241 8.46386C25.3683 8.83754 25.1847 9.25941 24.8134 9.40483L21.8289 10.5758C21.4643 10.7186 21.2238 11.0737 21.2238 11.4685V13.614H25.8325C26.4773 13.614 27 14.1413 27 14.7917C27 15.4421 26.4773 15.9694 25.8325 15.9694H15.1675C14.5227 15.9694 14 15.4421 14 14.7917C14 14.1413 14.5227 13.614 15.1675 13.614H19.7822V10.7533C19.7822 10.1902 20.125 9.68467 20.6455 9.48007L24.2913 8.0496ZM22.7089 28.8904H18.0699C17.1882 28.8904 16.4423 28.2309 16.3275 27.3483L14.8516 17H25.9264L24.4505 27.3483C24.3357 28.2301 23.5914 28.8904 22.7089 28.8904Z" fill="white"/>
<defs>
<filter id="filter0_d_774_3041" x="0" y="0" width="40.9175" height="43.9797" filterUnits="userSpaceOnUse" color-interpolation-filters="sRGB">
<feFlood flood-opacity="0" result="BackgroundImageFix"/>
<feColorMatrix in="SourceAlpha" type="matrix" values="0 0 0 0 0 0 0 0 0 0 0 0 0 0 0 0 0 0 127 0" result="hardAlpha"/>
<feOffset dy="2"/>
<feGaussianBlur stdDeviation="2"/>
<feComposite in2="hardAlpha" operator="out"/>
<feColorMatrix type="matrix" values="0 0 0 0 0 0 0 0 0 0 0 0 0 0 0 0 0 0 0.25 0"/>
<feBlend mode="normal" in2="BackgroundImageFix" result="effect1_dropShadow_774_3041"/>
<feBlend mode="normal" in="SourceGraphic" in2="effect1_dropShadow_774_3041" result="shape"/>
</filter>
</defs>
</svg>
