<svg width="16" height="19" viewBox="0 0 16 19" fill="none" xmlns="http://www.w3.org/2000/svg">
<path d="M8 0C3.58114 0 0 3.55133 0 7.93341C0 8.54538 0.0719424 9.1415 0.204636 9.71383C0.532374 11.1312 1.77298 12.761 2.47002 13.6615C3.16707 14.5636 4.58353 16.3726 5.80815 17.9358C6.92086 19.3547 9.08233 19.3547 10.1934 17.9358C11.4181 16.3726 12.8329 14.5636 13.53 13.6631C14.227 12.7626 15.4676 11.1312 15.7954 9.71383C15.9281 9.1415 16 8.54538 16 7.93341C16 3.55133 12.4189 0 8 0ZM11.3285 8.69441C11.1878 9.30004 10.8857 9.84225 10.4668 10.2751L10.3613 10.3797C9.7474 10.9616 8.91607 11.3214 8 11.3214C7.08393 11.3214 6.2526 10.9631 5.63869 10.3797L5.53317 10.2751C5.11431 9.84225 4.81215 9.29845 4.67146 8.69441C4.59313 8.3583 4.56435 8.00317 4.59792 7.63535C4.7514 5.93579 6.19984 4.5866 7.92006 4.54697C9.84333 4.50258 11.4165 6.03567 11.4165 7.93341C11.4165 8.19501 11.3861 8.44867 11.3285 8.69441Z" fill="#0BB76D"/>
</svg>
