<svg width="85" height="50" viewBox="0 0 85 50" fill="none" xmlns="http://www.w3.org/2000/svg">
<g filter="url(#filter0_d_1683_11268)">
<ellipse cx="42" cy="44.5" rx="7" ry="2.5" fill="#3B4943"/>
<path d="M42 11C37.5817 11 34 14.5817 34 19C34 23.4183 37.5817 27 42 27C46.4183 27 50 23.4183 50 19C50 14.5817 46.4183 11 42 11ZM40.5 44L40.5 45.5L43.5 45.5L43.5 44L40.5 44ZM40.5 19L40.5 44L43.5 44L43.5 19L40.5 19Z" fill="#3B4943"/>
<rect x="2" y="1" width="81" height="28" rx="14" fill="#3B4943"/>
<path d="M26.7014 8.03223V17.7588H24.8264V8.03223H26.7014ZM27.0529 19.6191V21.1133H17.7658V16.8213H19.6555V19.6191H27.0529ZM20.6516 10.0537C20.6369 11.8115 21.5744 13.54 23.7717 14.2432L22.8195 15.708C21.3181 15.21 20.278 14.2139 19.6848 12.9395C19.0915 14.3091 18.0222 15.4077 16.4621 15.9424L15.4953 14.4629C17.7365 13.7158 18.7033 11.8555 18.7033 10.0537V8.76465H20.6516V10.0537ZM38.9439 8.75V9.64355C38.9439 10.7568 38.9439 12.2949 38.5924 14.4922H40.5113V16.001H37.6256V21.3477H35.7652V16.001H32.9967V21.3477H31.1217V16.001H28.3531V14.4922H36.7027C37.0396 12.6904 37.0982 11.3062 37.1275 10.2588H29.8033V8.75H38.9439ZM48.8246 8.57422C50.8607 8.55957 52.3402 9.7168 52.3402 11.4014C52.3402 13.0713 50.8607 14.2432 48.8246 14.2285C46.7885 14.2432 45.309 13.0713 45.3236 11.4014C45.309 9.7168 46.7885 8.55957 48.8246 8.57422ZM48.8246 10.0684C47.8285 10.0684 47.1254 10.5518 47.1254 11.4014C47.1254 12.2363 47.8285 12.7197 48.8246 12.7051C49.85 12.7197 50.5678 12.2363 50.5678 11.4014C50.5678 10.5518 49.85 10.0684 48.8246 10.0684ZM55.7094 8.03223V21.3477H53.8637V8.03223H55.7094ZM44.5033 15.0488C46.8617 15.0488 50.2162 14.9902 53.058 14.5654L53.1752 15.9424C52.0766 16.1621 50.9486 16.3013 49.8354 16.3818V20.9521H47.975V16.499C46.8031 16.5503 45.6972 16.5576 44.7377 16.5723L44.5033 15.0488ZM68.4354 8.01758V21.3477H66.5604V8.01758H68.4354ZM62.5027 12.1924C62.5027 14.126 63.6014 16.3086 65.8133 17.2168L64.8025 18.6523C63.2864 18.0298 62.2024 16.7554 61.5945 15.2246C61.0013 16.8506 59.91 18.2129 58.3572 18.8574L57.3611 17.4219C59.5584 16.4697 60.6424 14.2285 60.6424 12.1924V11.6797H57.8006V10.1855H60.6277V8.31055H62.4881V10.1855H65.2713V11.6797H62.5027V12.1924Z" fill="white"/>
</g>
<defs>
<filter id="filter0_d_1683_11268" x="0" y="0" width="85" height="50" filterUnits="userSpaceOnUse" color-interpolation-filters="sRGB">
<feFlood flood-opacity="0" result="BackgroundImageFix"/>
<feColorMatrix in="SourceAlpha" type="matrix" values="0 0 0 0 0 0 0 0 0 0 0 0 0 0 0 0 0 0 127 0" result="hardAlpha"/>
<feOffset dy="1"/>
<feGaussianBlur stdDeviation="1"/>
<feComposite in2="hardAlpha" operator="out"/>
<feColorMatrix type="matrix" values="0 0 0 0 0 0 0 0 0 0 0 0 0 0 0 0 0 0 0.25 0"/>
<feBlend mode="normal" in2="BackgroundImageFix" result="effect1_dropShadow_1683_11268"/>
<feBlend mode="normal" in="SourceGraphic" in2="effect1_dropShadow_1683_11268" result="shape"/>
</filter>
</defs>
</svg>
