<svg xmlns="http://www.w3.org/2000/svg" width="41" height="44" viewBox="0 0 41 44" fill="none">
  <g filter="url(#filter0_d_774_3040)">
    <path d="M3.9999 18.7897C3.9999 9.344 11.6443 1.71928 20.9651 2.00793C29.4822 2.26895 36.4886 9.27951 36.8979 17.9636C37.2892 26.2639 31.7695 33.3206 24.2606 35.1323C23.9446 35.2091 23.6496 35.3657 23.4209 35.6021L21.5248 37.5306C20.935 38.1294 19.9839 38.1294 19.394 37.5306L17.498 35.6021C17.2662 35.3688 16.9743 35.2091 16.6583 35.1323C9.40215 33.382 4.00291 26.7307 4.00291 18.7897H3.9999Z" fill="white"/>
    <path d="M20.3466 33.3866C12.525 33.3866 6.18436 26.8746 6.18436 18.8416C6.18436 10.8086 12.525 4.29663 20.3466 4.29663C28.1681 4.29663 34.5088 10.8086 34.5088 18.8416C34.5088 26.8746 28.1681 33.3866 20.3466 33.3866Z" fill="#FF9900"/>
  </g>
  <path fill-rule="evenodd" clip-rule="evenodd" d="M21.4442 12.608C21.2263 12.2442 20.699 12.2442 20.4811 12.608L18.8456 15.3386C18.5142 15.8918 17.7972 16.0716 17.244 15.7403C16.6908 15.4089 16.5109 14.6918 16.8423 14.1387L18.4777 11.4084L18.4778 11.4083C19.6022 9.53053 22.3232 9.53058 23.4476 11.4084L25.3344 14.5595L26.7308 13.7233L26.8199 19.3104L21.9359 16.5947L23.3311 15.7592L21.4442 12.608ZM16.8839 16.3429L16.7948 21.93L15.3984 21.0937L14.492 22.6075L14.492 22.6076C14.2675 22.9827 14.538 23.4582 14.9735 23.4582H17.6434C18.2882 23.4582 18.8109 23.9809 18.8109 24.6257C18.8109 25.2706 18.2882 25.7933 17.6434 25.7933H14.9735C12.7228 25.7933 11.3327 23.3387 12.4885 21.4081L13.395 19.894L12 19.0586L16.8839 16.3429ZM27.1443 19.8527C27.6975 19.5212 28.4146 19.7009 28.746 20.2541L29.4382 21.4091C30.594 23.3397 29.2039 25.7944 26.9531 25.7944H24.1599V27.4202L19.321 24.6258L24.1599 21.8314V23.4592H26.9531C27.3885 23.4592 27.659 22.984 27.4349 22.609L27.4348 22.6088L27.4346 22.6085L26.743 21.4544C26.4115 20.9012 26.5912 20.1842 27.1443 19.8527Z" fill="white"/>
  <defs>
    <filter id="filter0_d_774_3040" x="0" y="0" width="40.9175" height="43.9797" filterUnits="userSpaceOnUse" color-interpolation-filters="sRGB">
      <feFlood flood-opacity="0" result="BackgroundImageFix"/>
      <feColorMatrix in="SourceAlpha" type="matrix" values="0 0 0 0 0 0 0 0 0 0 0 0 0 0 0 0 0 0 127 0" result="hardAlpha"/>
      <feOffset dy="2"/>
      <feGaussianBlur stdDeviation="2"/>
      <feComposite in2="hardAlpha" operator="out"/>
      <feColorMatrix type="matrix" values="0 0 0 0 0 0 0 0 0 0 0 0 0 0 0 0 0 0 0.25 0"/>
      <feBlend mode="normal" in2="BackgroundImageFix" result="effect1_dropShadow_774_3040"/>
      <feBlend mode="normal" in="SourceGraphic" in2="effect1_dropShadow_774_3040" result="shape"/>
    </filter>
  </defs>
</svg>