<svg xmlns="http://www.w3.org/2000/svg" width="41" height="44" viewBox="0 0 41 44" fill="none">
  <g filter="url(#filter0_d_1495_24598)">
    <path d="M4.00039 18.7897C4.00039 9.344 11.6448 1.71928 20.9655 2.00793C29.4827 2.26895 36.4891 9.27951 36.8984 17.9636C37.2897 26.2639 31.77 33.3206 24.2611 35.1323C23.9451 35.2091 23.6501 35.3657 23.4214 35.6021L21.5253 37.5306C20.9354 38.1294 19.9844 38.1294 19.3945 37.5306L17.4985 35.6021C17.2667 35.3688 16.9748 35.2091 16.6588 35.1323C9.40263 33.382 4.0034 26.7307 4.0034 18.7897H4.00039Z" fill="white"/>
    <path d="M20.3475 33.3865C12.526 33.3865 6.18533 26.8745 6.18533 18.8415C6.18533 10.8085 12.526 4.29651 20.3475 4.29651C28.1691 4.29651 34.5098 10.8085 34.5098 18.8415C34.5098 26.8745 28.1691 33.3865 20.3475 33.3865Z" fill="#0A7B4B"/>
    <path d="M26.3967 13.1954H13.8124C13.2709 13.1954 12.832 13.6406 12.832 14.1898V14.1916C12.832 14.7407 13.2709 15.1859 13.8124 15.1859H26.3967C26.9381 15.1859 27.377 14.7407 27.377 14.1916V14.1898C27.377 13.6406 26.9381 13.1954 26.3967 13.1954Z" fill="white"/>
    <path d="M22.6576 9.59924H17.826C17.2846 9.59924 16.8457 10.0444 16.8457 10.5936V10.5954C16.8457 11.1445 17.2846 11.5897 17.826 11.5897H22.6576C23.199 11.5897 23.6379 11.1445 23.6379 10.5954V10.5936C23.6379 10.0444 23.199 9.59924 22.6576 9.59924Z" fill="white"/>
    <path d="M14.4375 16.7916V25.9577C14.4375 27.1545 15.3945 28.1251 16.5745 28.1251H23.8775C25.0575 28.1251 26.0145 27.1545 26.0145 25.9577V16.7916H14.4375ZM18.9093 25.7461C18.9093 26.1493 18.5873 26.4758 18.1898 26.4758C17.7922 26.4758 17.4703 26.1493 17.4703 25.7461V19.1689C17.4703 18.7657 17.7922 18.4391 18.1898 18.4391C18.5873 18.4391 18.9093 18.7657 18.9093 19.1689V25.7461ZM22.9817 25.7461C22.9817 26.1493 22.6597 26.4758 22.2622 26.4758C21.8647 26.4758 21.5427 26.1493 21.5427 25.7461V19.1689C21.5427 18.7657 21.8647 18.4391 22.2622 18.4391C22.6597 18.4391 22.9817 18.7657 22.9817 19.1689V25.7461Z" fill="white"/>
  </g>
  <defs>
    <filter id="filter0_d_1495_24598" x="0" y="0" width="40.918" height="43.9797" filterUnits="userSpaceOnUse" color-interpolation-filters="sRGB">
      <feFlood flood-opacity="0" result="BackgroundImageFix"/>
      <feColorMatrix in="SourceAlpha" type="matrix" values="0 0 0 0 0 0 0 0 0 0 0 0 0 0 0 0 0 0 127 0" result="hardAlpha"/>
      <feOffset dy="2"/>
      <feGaussianBlur stdDeviation="2"/>
      <feComposite in2="hardAlpha" operator="out"/>
      <feColorMatrix type="matrix" values="0 0 0 0 0 0 0 0 0 0 0 0 0 0 0 0 0 0 0.25 0"/>
      <feBlend mode="normal" in2="BackgroundImageFix" result="effect1_dropShadow_1495_24598"/>
      <feBlend mode="normal" in="SourceGraphic" in2="effect1_dropShadow_1495_24598" result="shape"/>
    </filter>
  </defs>
</svg>