<svg xmlns="http://www.w3.org/2000/svg" width="42" height="45" viewBox="0 0 42 45" fill="none">
  <g filter="url(#filter0_d_1495_24636)">
    <path d="M4.00076 18.8473C4.00076 9.36919 11.6714 1.71832 21.0241 2.00796C29.5705 2.26987 36.6009 9.30448 37.0116 18.0184C37.4042 26.3472 31.8657 33.428 24.3309 35.246C24.0138 35.323 23.7179 35.4801 23.4884 35.7174L21.5858 37.6525C20.9939 38.2533 20.0396 38.2533 19.4477 37.6525L17.5451 35.7174C17.3126 35.4832 17.0197 35.323 16.7026 35.246C9.42153 33.4896 4.00378 26.8155 4.00378 18.8473H4.00076Z" fill="white"/>
    <path d="M20.465 33.4942C12.6166 33.4942 6.2542 26.9598 6.2542 18.8993C6.2542 10.8388 12.6166 4.30444 20.465 4.30444C28.3134 4.30444 34.6758 10.8388 34.6758 18.8993C34.6758 26.9598 28.3134 33.4942 20.465 33.4942Z" fill="#EA3333"/>
    <path d="M19.8021 11.6578L18.3717 14.6832C18.2201 15.0041 17.9263 15.2267 17.5872 15.2783L14.3885 15.7635C13.534 15.8929 13.1926 16.9898 13.8108 17.6185L16.1256 19.9735C16.3713 20.2232 16.4835 20.5833 16.4253 20.936L15.8788 24.2614C15.7331 25.1497 16.6263 25.8275 17.3909 25.4079L20.2523 23.8375C20.5561 23.6707 20.9187 23.6707 21.2219 23.8375L24.0833 25.4079C24.8478 25.8275 25.7411 25.1497 25.5953 24.2614L25.0488 20.936C24.9906 20.5833 25.1029 20.2232 25.3485 19.9735L27.6628 17.6191C28.281 16.9898 27.9401 15.8935 27.0851 15.7641L23.8864 15.2789C23.5467 15.2274 23.2535 15.0047 23.1019 14.6838L21.6715 11.6584C21.2895 10.8499 20.1847 10.8499 19.8027 11.6584L19.8021 11.6578Z" fill="white"/>
  </g>
  <defs>
    <filter id="filter0_d_1495_24636" x="0" y="0" width="41.0312" height="44.1031" filterUnits="userSpaceOnUse" color-interpolation-filters="sRGB">
      <feFlood flood-opacity="0" result="BackgroundImageFix"/>
      <feColorMatrix in="SourceAlpha" type="matrix" values="0 0 0 0 0 0 0 0 0 0 0 0 0 0 0 0 0 0 127 0" result="hardAlpha"/>
      <feOffset dy="2"/>
      <feGaussianBlur stdDeviation="2"/>
      <feComposite in2="hardAlpha" operator="out"/>
      <feColorMatrix type="matrix" values="0 0 0 0 0 0 0 0 0 0 0 0 0 0 0 0 0 0 0.25 0"/>
      <feBlend mode="normal" in2="BackgroundImageFix" result="effect1_dropShadow_1495_24636"/>
      <feBlend mode="normal" in="SourceGraphic" in2="effect1_dropShadow_1495_24636" result="shape"/>
    </filter>
  </defs>
</svg>