<svg xmlns="http://www.w3.org/2000/svg" width="41" height="44" viewBox="0 0 41 44" fill="none">
  <g filter="url(#filter0_d_1495_8991)">
    <path d="M4.00039 18.7897C4.00039 9.344 11.6448 1.71928 20.9655 2.00793C29.4827 2.26895 36.4891 9.27951 36.8984 17.9636C37.2897 26.2639 31.77 33.3206 24.2611 35.1323C23.9451 35.2091 23.6501 35.3657 23.4214 35.6021L21.5253 37.5306C20.9354 38.1294 19.9844 38.1294 19.3945 37.5306L17.4985 35.6021C17.2667 35.3688 16.9748 35.2091 16.6588 35.1323C9.40263 33.382 4.0034 26.7307 4.0034 18.7897H4.00039Z" fill="white"/>
  </g>
  <path d="M20.3475 33.3866C12.526 33.3866 6.18533 26.8746 6.18533 18.8416C6.18533 10.8086 12.526 4.29663 20.3475 4.29663C28.1691 4.29663 34.5098 10.8086 34.5098 18.8416C34.5098 26.8746 28.1691 33.3866 20.3475 33.3866Z" fill="#7D818D"/>
  <path d="M24.9106 22.3046L24.6783 22.8037C24.5918 22.9901 24.4125 23.1083 24.2161 23.1083H20.7845C20.5881 23.1083 20.4087 22.9901 20.3222 22.8037L20.0899 22.3046C20.0034 22.1182 19.8241 22 19.6277 22H16.5154C16.2035 22 15.9627 22.2915 16.0048 22.6184L16.3794 25.5287C16.4141 25.7989 16.6321 26 16.89 26H28.11C28.3678 26 28.5859 25.7989 28.6206 25.5287L28.9952 22.6184C29.0373 22.2915 28.7971 22 28.4846 22H25.3723C25.1759 22 24.9966 22.1182 24.91 22.3046H24.9106Z" fill="white"/>
  <path d="M24.6253 17.2945L15.2149 15.2284C14.9218 15.1643 14.543 15.741 14.3685 16.5174C14.194 17.2938 14.2894 17.9752 14.5825 18.0392L23.9929 20.1054C24.286 20.1695 24.6648 19.5927 24.8393 18.8163C25.0138 18.04 24.9183 17.3586 24.6253 17.2945Z" fill="white"/>
  <path d="M13.3782 16.3003C13.5236 15.6557 13.8092 15.1482 14.0695 15.0318C14.0948 15.0208 14.0904 14.9817 14.0635 14.9758L8.93362 13.8496C8.64055 13.7855 8.26172 14.3623 8.08722 15.1386C7.91271 15.915 8.00817 16.5964 8.30124 16.6605L13.4311 17.7867C13.458 17.7926 13.4789 17.7595 13.4602 17.7388C13.2745 17.5237 13.2328 16.9448 13.3782 16.3003Z" fill="white"/>
  <path d="M25.0575 16.9992C24.9005 16.5778 25.0844 16.0558 25.3749 15.7242C25.5814 15.4565 25.8778 15.2288 25.9702 14.9628C25.9828 14.9221 25.9861 14.8889 25.9895 14.8515C25.9937 14.8373 25.9895 14.8141 25.9895 14.7974C25.9886 14.7783 25.9928 14.7675 25.9895 14.7426C25.9853 14.6403 25.9828 14.5448 25.9274 14.4583C25.6797 14.056 25.2708 13.5615 25.1717 13.0154C24.9526 12.0239 25.5369 10.9126 26.5168 10.6151C26.8417 10.502 27.0877 10.4937 27.3841 10.3873C27.6024 10.3117 27.7434 10.1878 27.9391 10C28.1792 10.6957 27.6612 11.2683 27.2262 11.7246C27.0692 11.9158 27.0063 12.0106 27.0096 12.2042C27.0096 12.2932 27.0096 12.3929 27.0398 12.4777C27.1246 12.6547 27.1801 12.7154 27.3295 12.9373C27.4613 13.121 27.6687 13.4676 27.7628 13.7568C28.0239 14.5448 27.7787 15.4815 27.1356 16.0192C26.7603 16.3326 26.3547 16.434 25.9458 16.5188C25.5848 16.5828 25.3295 16.7149 25.0567 17L25.0575 16.9992Z" fill="white"/>
  <defs>
    <filter id="filter0_d_1495_8991" x="0" y="0" width="40.918" height="43.9797" filterUnits="userSpaceOnUse" color-interpolation-filters="sRGB">
      <feFlood flood-opacity="0" result="BackgroundImageFix"/>
      <feColorMatrix in="SourceAlpha" type="matrix" values="0 0 0 0 0 0 0 0 0 0 0 0 0 0 0 0 0 0 127 0" result="hardAlpha"/>
      <feOffset dy="2"/>
      <feGaussianBlur stdDeviation="2"/>
      <feComposite in2="hardAlpha" operator="out"/>
      <feColorMatrix type="matrix" values="0 0 0 0 0 0 0 0 0 0 0 0 0 0 0 0 0 0 0.25 0"/>
      <feBlend mode="normal" in2="BackgroundImageFix" result="effect1_dropShadow_1495_8991"/>
      <feBlend mode="normal" in="SourceGraphic" in2="effect1_dropShadow_1495_8991" result="shape"/>
    </filter>
  </defs>
</svg>