<svg width="32" height="30" viewBox="0 0 32 30" fill="none" xmlns="http://www.w3.org/2000/svg">
<g id="Group 316">
<path id="Vector" d="M16.0809 0.513672C7.36955 0.513672 0.344238 6.13386 0.344238 12.9568C0.344238 17.3856 3.26677 21.2636 7.65056 23.4779L6.16682 29.0196C6.13884 29.1026 6.13454 29.1917 6.15439 29.2771C6.17424 29.3625 6.21746 29.4406 6.27922 29.5028C6.36927 29.5822 6.48513 29.6262 6.60519 29.6264C6.70474 29.6185 6.79919 29.5791 6.87496 29.5141L13.2596 25.209C14.202 25.3391 15.152 25.4066 16.1034 25.4113C24.8036 25.4113 31.8401 19.7911 31.8401 12.9568C31.8401 6.12262 24.7811 0.513672 16.0809 0.513672Z" fill="#392020"/>
<path id="Vector_2" d="M5.85167 10.9899H4.13187C3.91871 10.9961 3.70819 10.9415 3.52488 10.8325C3.4435 10.7815 3.37353 10.7142 3.31937 10.6349C3.26521 10.5556 3.22803 10.466 3.21015 10.3716C3.20469 10.3118 3.20469 10.2517 3.21015 10.1919C3.20481 10.0799 3.22654 9.9683 3.2735 9.86655C3.32046 9.7648 3.39127 9.67591 3.47992 9.60735C3.67588 9.46543 3.91241 9.39046 4.15435 9.39371H9.33622C9.55107 9.38616 9.76303 9.44507 9.94321 9.56235C10.0265 9.61108 10.098 9.67777 10.1524 9.75746C10.2068 9.83716 10.2429 9.92792 10.2579 10.0232C10.2634 10.0793 10.2634 10.1358 10.2579 10.1919C10.2632 10.3054 10.2416 10.4186 10.1947 10.5222C10.1478 10.6257 10.077 10.7166 9.98817 10.7875C9.79698 10.9293 9.56274 11.0008 9.32498 10.9899H7.66139V16.9024C7.66814 17.0284 7.64865 17.1543 7.60414 17.2724C7.55964 17.3904 7.49109 17.4979 7.40285 17.5881C7.31824 17.6743 7.21652 17.7418 7.10424 17.7864C6.99196 17.8309 6.87159 17.8514 6.7509 17.8466C6.5398 17.8526 6.33318 17.7851 6.1664 17.6556C6.00762 17.529 5.89986 17.3493 5.86291 17.1497C5.8518 17.0676 5.8518 16.9845 5.86291 16.9024L5.85167 10.9899Z" fill="#FEE500"/>
<path id="Vector_3" d="M10.754 9.83215C10.8035 9.64718 10.9196 9.487 11.08 9.3825C11.2509 9.28561 11.4457 9.23887 11.642 9.24762H12.0692C12.2774 9.24015 12.4837 9.29075 12.6649 9.39375C12.8569 9.52287 12.9933 9.71947 13.0471 9.94453L15.2952 16.2954C15.3535 16.4611 15.4023 16.6301 15.4413 16.8013C15.4452 16.8725 15.4452 16.9437 15.4413 17.0148C15.4451 17.1244 15.4249 17.2335 15.3822 17.3344C15.3395 17.4354 15.2753 17.5258 15.194 17.5994C15.1153 17.6801 15.0207 17.7437 14.9163 17.7863C14.8119 17.8288 14.6998 17.8493 14.587 17.8466C14.4137 17.8639 14.2395 17.8223 14.0927 17.7285C13.9459 17.6347 13.8349 17.4942 13.7777 17.3296L13.3056 15.9471H10.3494L9.87726 17.3296C9.82143 17.4974 9.70912 17.6407 9.55949 17.7349C9.40987 17.8292 9.23218 17.8687 9.0567 17.8466C8.86663 17.8516 8.68045 17.7922 8.5284 17.678C8.38026 17.5602 8.28032 17.3924 8.24739 17.206C8.24142 17.1424 8.24142 17.0784 8.24739 17.0148C8.22808 16.9033 8.22808 16.7893 8.24739 16.6777C8.24739 16.5541 8.32607 16.4191 8.37103 16.2954L10.754 9.83215ZM11.8781 11.3047L10.8102 14.6769H12.9347L11.8781 11.3047Z" fill="#FEE500"/>
<path id="Vector_4" d="M15.6987 10.1918C15.6873 9.93956 15.7762 9.69306 15.946 9.50617C16.0323 9.4191 16.136 9.35105 16.2502 9.30652C16.3644 9.26199 16.4867 9.24185 16.6092 9.24752C16.8198 9.24506 17.0253 9.31229 17.1937 9.43866C17.3498 9.57051 17.4535 9.75391 17.486 9.95568C17.497 10.034 17.497 10.1135 17.486 10.1918V16.1043H20.5771C20.7914 16.1015 21.002 16.1599 21.1841 16.2728C21.2659 16.3233 21.3362 16.3905 21.3905 16.4699C21.4447 16.5493 21.4816 16.6391 21.4988 16.7337C21.4988 16.7337 21.4988 16.8462 21.4988 16.9024C21.5042 17.0143 21.4824 17.1258 21.4355 17.2276C21.3885 17.3293 21.3177 17.4183 21.2291 17.4869C21.0331 17.6288 20.7966 17.7036 20.5546 17.7004H16.7553C16.5134 17.716 16.2728 17.653 16.0697 17.5206C15.8879 17.3848 15.7668 17.1829 15.7325 16.9586C15.7242 16.8351 15.7242 16.7111 15.7325 16.5876L15.6987 10.1918Z" fill="#FEE500"/>
<path id="Vector_5" d="M21.7013 10.192C21.6945 9.94047 21.7828 9.69567 21.9486 9.50634C22.117 9.35326 22.3331 9.26286 22.5604 9.25058C22.7877 9.23829 23.0123 9.3048 23.1962 9.43883C23.3558 9.56953 23.4634 9.75285 23.4997 9.95585C23.5053 10.0344 23.5053 10.1134 23.4997 10.192V12.9459L26.3436 9.66359C26.4532 9.55161 26.5695 9.44661 26.692 9.34896C26.8075 9.28021 26.9399 9.24507 27.0742 9.2477C27.2707 9.24662 27.4628 9.30546 27.625 9.41633C27.7014 9.4678 27.7667 9.5342 27.8169 9.61145C27.8671 9.6887 27.9012 9.77524 27.9173 9.86598C27.9218 9.88823 27.9218 9.91124 27.9173 9.93349C27.9118 9.95943 27.9118 9.98617 27.9173 10.0121C27.9169 10.1304 27.8859 10.2466 27.8273 10.3494C27.7677 10.4582 27.6961 10.5599 27.6138 10.6528L25.7478 12.6986L27.9959 16.1831V16.2955C28.1127 16.4566 28.2037 16.6349 28.2657 16.8239V16.88C28.2787 17.0103 28.2599 17.1418 28.211 17.2631C28.1621 17.3845 28.0844 17.4922 27.9847 17.5769C27.7972 17.7187 27.5678 17.7939 27.3328 17.7906C27.1766 17.797 27.0215 17.762 26.8831 17.6893C26.7334 17.5889 26.6101 17.454 26.5234 17.2959L24.4327 13.9238L23.4323 14.9692V16.8463C23.439 17.0978 23.3507 17.3426 23.185 17.5319C23.0962 17.6188 22.9905 17.6866 22.8745 17.731C22.7585 17.7755 22.6347 17.7958 22.5106 17.7906C22.3032 17.7949 22.1006 17.7274 21.9373 17.5994C21.7785 17.4729 21.6708 17.2933 21.6338 17.0937C21.6227 17.0116 21.6227 16.9283 21.6338 16.8463L21.7013 10.192Z" fill="#FEE500"/>
</g>
</svg>
