<svg width="14" height="15" viewBox="0 0 14 15" fill="none" xmlns="http://www.w3.org/2000/svg">
<path id="Union" fill-rule="evenodd" clip-rule="evenodd" d="M5.55819 0.949033C5.55819 0.424897 6.05588 0 6.66982 0C7.28376 0 7.78146 0.424897 7.78146 0.949033V6.18335L11.4478 8.25106L11.4478 8.25112L7.78146 6.18339V6.83241C7.78146 7.35654 7.28376 7.78144 6.66982 7.78144C6.05588 7.78144 5.55819 7.35654 5.55819 6.83241V4.92952L4.09227 4.10278L4.09227 4.10277L5.55819 4.9295V0.949033ZM4.09227 4.10277L3.8123 3.94488L3.8123 3.94489L4.09227 4.10278C4.02999 4.27189 3.91952 4.42013 3.77576 4.52999L3.77564 4.53008C2.63002 5.40469 1.89053 6.78275 1.89053 8.33041C1.89053 11.0989 4.25675 13.3249 7.07309 13.0931C9.44405 12.8975 11.3255 10.9485 11.4425 8.57202L11.4425 8.57195C11.4478 8.46425 11.4496 8.35727 11.4478 8.25112L11.7626 8.42866L11.7626 8.42859L11.4478 8.25106C11.4229 6.73179 10.6855 5.38262 9.55401 4.52376C9.31804 4.34499 9.18985 4.06645 9.18985 3.78117V3.75155C9.18985 2.98384 10.0681 2.54376 10.6822 3.00787C12.3792 4.28834 13.4474 6.36215 13.331 8.67332C13.1583 12.1039 10.3657 14.8619 6.93345 14.9949C3.13617 15.1424 0 12.0961 0 8.33041C0 6.15628 1.04574 4.22292 2.65855 3.00539L2.65865 3.00531C3.27382 2.5413 4.14908 2.98654 4.14908 3.75092V3.78432C4.14908 3.89536 4.12911 4.00272 4.09227 4.10277Z" fill="#A4B7AD"/>
</svg>
