<svg width="21" height="20" viewBox="0 0 21 20" fill="none" xmlns="http://www.w3.org/2000/svg">
<g id="Group 122">
<path id="Vector" d="M13.5464 4.46753C13.5464 6.52066 11.882 8.18506 9.82886 8.18506C7.77572 8.18506 6.11133 6.52066 6.11133 4.46753C6.11133 2.41439 7.77572 0.75 9.82886 0.75C11.882 0.75 13.5464 2.41439 13.5464 4.46753Z" stroke="#0BB76D" stroke-width="1.5"/>
<path id="Vector_2" d="M3.99999 18.9072C3.09736 18.9072 2.2898 18.5231 1.81239 17.9776C1.3537 17.4534 1.19747 16.7919 1.51664 16.0826C2.96763 12.8578 6.33296 10.5786 10.2753 10.5786C14.2177 10.5786 17.583 12.8578 19.034 16.0826C19.3532 16.7919 19.1969 17.4534 18.7382 17.9776C18.2608 18.5231 17.4533 18.9072 16.5506 18.9072H3.99999Z" stroke="#0BB76D" stroke-width="1.5"/>
</g>
</svg>
