<svg width="79" height="79" viewBox="0 0 79 79" fill="none" xmlns="http://www.w3.org/2000/svg">
<g id="Group 33773">
<circle id="Ellipse 97" cx="39.5" cy="39.5" r="39.5" fill="#A4B7AD"/>
<path id="Union" fill-rule="evenodd" clip-rule="evenodd" d="M36.6361 24.2144C36.6361 22.9914 37.7974 22 39.2299 22C40.6624 22 41.8237 22.9914 41.8237 24.2144V36.4273L50.3795 41.2524L50.3795 41.2526L41.8237 36.4273V37.9422C41.8237 39.1652 40.6624 40.1567 39.2299 40.1567C37.7974 40.1567 36.6361 39.1652 36.6361 37.9422V33.5017L33.2166 31.5731L33.2166 31.5731L36.6361 33.5016V24.2144ZM33.2166 31.5731L32.5628 31.2044L32.5628 31.2044L33.2166 31.5731C33.0713 31.9677 32.8135 32.3136 32.4781 32.5699L32.4778 32.5702C29.8047 34.6109 28.0792 37.8264 28.0792 41.4376C28.0792 47.8974 33.6004 53.0913 40.1718 52.5504C45.704 52.0941 50.094 47.5464 50.367 42.0013L50.367 42.0012C50.3795 41.7499 50.3835 41.5002 50.3795 41.2526L51.1136 41.6666L51.1136 41.6664L50.3795 41.2524C50.3214 37.7075 48.6006 34.5594 45.9606 32.5554C45.41 32.1383 45.1109 31.4883 45.1109 30.8227V30.7536C45.1109 28.9623 47.1601 27.9354 48.5931 29.0183C52.5526 32.0061 55.0451 36.845 54.7735 42.2377C54.3706 50.2423 47.8545 56.6777 39.846 56.988C30.9857 57.3322 23.668 50.224 23.668 41.4376C23.668 36.3646 26.108 31.8535 29.8712 29.0125L29.8715 29.0124C31.3069 27.9297 33.3491 28.9686 33.3491 30.7521V30.83C33.3491 31.0891 33.3025 31.3396 33.2166 31.5731Z" fill="#F4F6F5"/>
</g>
</svg>
