<svg width="25" height="24" viewBox="0 0 25 24" fill="none" xmlns="http://www.w3.org/2000/svg">
<g id="Group 122">
<path id="Vector" d="M16.4833 5.50004C16.4833 8.02214 14.4388 10.0667 11.9167 10.0667C9.39457 10.0667 7.35 8.02214 7.35 5.50004C7.35 2.97794 9.39457 0.933374 11.9167 0.933374C14.4388 0.933374 16.4833 2.97794 16.4833 5.50004Z" stroke="#526961" stroke-width="1.7"/>
<path id="Vector_2" d="M4 23.0667C3.12396 23.0667 2.34216 22.699 1.86602 22.1678C1.40621 21.6548 1.22935 20.9992 1.48847 20.2873C3.05818 15.9751 7.36248 12.8501 12.4583 12.8501C17.5542 12.8501 21.8585 15.9751 23.4282 20.2873C23.6873 20.9992 23.5105 21.6548 23.0506 22.1678C22.5745 22.699 21.7927 23.0667 20.9167 23.0667H4Z" stroke="#526961" stroke-width="1.7"/>
</g>
</svg>
