<svg width="79" height="79" viewBox="0 0 79 79" fill="none" xmlns="http://www.w3.org/2000/svg">
<g id="Group 33825">
<circle id="Ellipse 97" cx="39.5" cy="39.5" r="39.5" fill="#A4B7AD"/>
<g id="Group 33824">
<g id="Group 33810">
<path id="Union" fill-rule="evenodd" clip-rule="evenodd" d="M39.8691 20.6729C47.0155 20.6729 52.8088 26.5834 52.8088 33.8745L52.8088 40.6603C52.8088 43.9326 56.5059 44.3426 56.5059 47.615C56.5059 49.6981 54.8506 51.3869 52.8088 51.3869H26.9294C24.8876 51.3869 23.2323 49.6981 23.2323 47.615C23.2323 44.3426 26.9294 43.9326 26.9294 40.6603V33.8745C26.9294 26.5834 32.7227 20.6729 39.8691 20.6729Z" fill="#F4F6F5"/>
<path id="Ellipse 96" d="M32.1908 53.9463C32.1908 54.6185 32.3895 55.2842 32.7753 55.9052C33.1612 56.5263 33.7268 57.0906 34.4398 57.566C35.1528 58.0413 35.9993 58.4184 36.9309 58.6756C37.8625 58.9329 38.861 59.0653 39.8693 59.0653C40.8777 59.0653 41.8762 58.9329 42.8078 58.6756C43.7394 58.4184 44.5859 58.0413 45.2989 57.566C46.0119 57.0906 46.5775 56.5263 46.9634 55.9052C47.3492 55.2842 47.5479 54.6185 47.5479 53.9463L39.8693 53.9463H32.1908Z" fill="#F4F6F5"/>
</g>
</g>
</g>
</svg>
