<svg width="26" height="30" viewBox="0 0 26 30" fill="none" xmlns="http://www.w3.org/2000/svg">
<g id="Group 33811">
<g id="Group 33810">
<path id="Union" fill-rule="evenodd" clip-rule="evenodd" d="M13 0C18.5842 0 23.1111 4.61854 23.1111 10.3158L23.1111 15.6182C23.1111 18.1752 26 18.4956 26 21.0526C26 22.6804 24.7066 24 23.1111 24H2.88889C1.2934 24 1.90735e-06 22.6804 1.90735e-06 21.0526C1.90735e-06 18.4956 2.88889 18.1752 2.88889 15.6182V10.3158C2.88889 4.61854 7.41579 0 13 0Z" fill="#A4B7AD"/>
<path id="Ellipse 96" d="M7 26C7 26.5253 7.15519 27.0454 7.45672 27.5307C7.75825 28.016 8.20021 28.457 8.75736 28.8284C9.31451 29.1999 9.97595 29.4945 10.7039 29.6955C11.4319 29.8965 12.2121 30 13 30C13.7879 30 14.5681 29.8965 15.2961 29.6955C16.0241 29.4945 16.6855 29.1999 17.2426 28.8284C17.7998 28.457 18.2417 28.016 18.5433 27.5307C18.8448 27.0454 19 26.5253 19 26L13 26H7Z" fill="#A4B7AD"/>
</g>
</g>
</svg>
