<svg width="207" height="136" viewBox="0 0 207 136" fill="none" xmlns="http://www.w3.org/2000/svg">
<g id="Group 34087">
<g id="Group 34075">
<path id="Vector" d="M-0.000392914 91.0748C-0.000392914 75.8428 12.3269 63.5473 27.3574 64.0128C41.0921 64.4337 52.3904 75.7388 53.0505 89.7428C53.6814 103.128 44.7805 114.507 32.6717 117.429C32.1621 117.552 31.6865 117.805 31.3176 118.186L28.2601 121.296C27.3088 122.262 25.7752 122.262 24.824 121.296L21.7664 118.186C21.3927 117.81 20.922 117.552 20.4124 117.429C8.71119 114.606 0.0044632 103.88 0.0044632 91.0748H-0.000392914Z" fill="url(#paint0_linear_1495_7987)"/>
<g id="Group 109">
<path id="Vector_2" d="M37.3866 80.9111H14.5523C13.5698 80.9111 12.7734 81.7189 12.7734 82.7154V82.7187C12.7734 83.7151 13.5698 84.5229 14.5523 84.5229H37.3866C38.369 84.5229 39.1654 83.7151 39.1654 82.7187V82.7154C39.1654 81.7189 38.369 80.9111 37.3866 80.9111Z" fill="white"/>
<path id="Vector_3" d="M30.6023 74.3848H21.8355C20.8531 74.3848 20.0566 75.1925 20.0566 76.189V76.1923C20.0566 77.1887 20.8531 77.9965 21.8355 77.9965H30.6023C31.5848 77.9965 32.3812 77.1887 32.3812 76.1923V76.189C32.3812 75.1925 31.5848 74.3848 30.6023 74.3848Z" fill="white"/>
<path id="Vector_4" d="M15.6875 87.4355V104.067C15.6875 106.239 17.4239 108 19.565 108H32.8165C34.9576 108 36.694 106.239 36.694 104.067V87.4355H15.6875ZM23.8016 103.683C23.8016 104.415 23.2173 105.008 22.496 105.008C21.7747 105.008 21.1905 104.415 21.1905 103.683V91.7491C21.1905 91.0175 21.7747 90.4249 22.496 90.4249C23.2173 90.4249 23.8016 91.0175 23.8016 91.7491V103.683ZM31.1911 103.683C31.1911 104.415 30.6068 105.008 29.8855 105.008C29.1642 105.008 28.58 104.415 28.58 103.683V91.7491C28.58 91.0175 29.1642 90.4249 29.8855 90.4249C30.6068 90.4249 31.1911 91.0175 31.1911 91.7491V103.683Z" fill="white"/>
</g>
</g>
<path id="Vector 2" d="M157.972 42H111.082C100.629 42 92.1556 50.4736 92.1556 60.9263V60.9263C92.1556 71.379 100.629 79.8525 111.082 79.8525H140.926C150.908 79.8525 159 87.9444 159 97.9263V97.9263C159 107.908 150.908 116 140.926 116H63" stroke="url(#paint1_linear_1495_7987)" stroke-width="7" stroke-linecap="round"/>
<path id="Vector_5" d="M188 0C177.505 0 169 8.78486 169 19.6248C169 21.1386 169.171 22.6132 169.486 24.029C170.264 27.5351 173.211 31.5667 174.866 33.7943C176.522 36.0258 179.886 40.5006 182.794 44.3675C185.437 47.8775 190.571 47.8775 193.209 44.3675C196.118 40.5006 199.478 36.0258 201.134 33.7982C202.789 31.5706 205.736 27.5351 206.514 24.029C206.829 22.6132 207 21.1386 207 19.6248C207 8.78486 198.495 0 188 0ZM195.905 21.5072C195.571 23.0054 194.854 24.3466 193.859 25.4173L193.608 25.6761C192.15 27.1154 190.176 28.0057 188 28.0057C185.824 28.0057 183.85 27.1193 182.392 25.6761L182.141 25.4173C181.146 24.3466 180.429 23.0014 180.095 21.5072C179.909 20.6758 179.84 19.7973 179.92 18.8875C180.285 14.6833 183.725 11.3458 187.81 11.2478C192.378 11.138 196.114 14.9303 196.114 19.6248C196.114 20.2719 196.042 20.8993 195.905 21.5072Z" fill="url(#paint2_linear_1495_7987)"/>
<path id="Vector_6" d="M188 0C177.505 0 169 8.78486 169 19.6248C169 21.1386 169.171 22.6132 169.486 24.029C170.264 27.5351 173.211 31.5667 174.866 33.7943C176.522 36.0258 179.886 40.5006 182.794 44.3675C185.437 47.8775 190.571 47.8775 193.209 44.3675C196.118 40.5006 199.478 36.0258 201.134 33.7982C202.789 31.5706 205.736 27.5351 206.514 24.029C206.829 22.6132 207 21.1386 207 19.6248C207 8.78486 198.495 0 188 0ZM195.905 21.5072C195.571 23.0054 194.854 24.3466 193.859 25.4173L193.608 25.6761C192.15 27.1154 190.176 28.0057 188 28.0057C185.824 28.0057 183.85 27.1193 182.392 25.6761L182.141 25.4173C181.146 24.3466 180.429 23.0014 180.095 21.5072C179.909 20.6758 179.84 19.7973 179.92 18.8875C180.285 14.6833 183.725 11.3458 187.81 11.2478C192.378 11.138 196.114 14.9303 196.114 19.6248C196.114 20.2719 196.042 20.8993 195.905 21.5072Z" fill="url(#paint3_linear_1495_7987)"/>
<ellipse id="Ellipse 107" cx="26.5" cy="130.521" rx="18.5" ry="4.5" fill="#CED9D4"/>
<ellipse id="Ellipse 108" cx="188" cy="54.5" rx="15" ry="3.5" fill="#CED9D4"/>
</g>
<defs>
<linearGradient id="paint0_linear_1495_7987" x1="26.5408" y1="64" x2="26.5408" y2="122.02" gradientUnits="userSpaceOnUse">
<stop stop-color="#00C16E"/>
<stop offset="1" stop-color="#30DAB2"/>
</linearGradient>
<linearGradient id="paint1_linear_1495_7987" x1="157" y1="42" x2="63" y2="116" gradientUnits="userSpaceOnUse">
<stop stop-color="#00C16E"/>
<stop offset="1" stop-color="#30DAB2"/>
</linearGradient>
<linearGradient id="paint2_linear_1495_7987" x1="188" y1="0" x2="188" y2="47" gradientUnits="userSpaceOnUse">
<stop stop-color="#00C16E"/>
<stop offset="1" stop-color="#30DAB2"/>
</linearGradient>
<linearGradient id="paint3_linear_1495_7987" x1="188" y1="0" x2="188" y2="47" gradientUnits="userSpaceOnUse">
<stop stop-color="#00C16E"/>
<stop offset="1" stop-color="#30DAB2"/>
</linearGradient>
</defs>
</svg>
