<svg width="18" height="18" viewBox="0 0 18 18" fill="none" xmlns="http://www.w3.org/2000/svg">
<g id="Group 33326">
<g id="Group 33642">
<path id="Union" d="M13.8662 8.76224L14.5734 8.05514L13.8662 7.34803L10.4742 3.95598L9.76709 3.24887L9.05998 3.95598L2.00451 11.0114L1.69724 11.3187L1.71222 11.753L1.82528 15.032L1.85745 15.9648L2.79023 15.9969L6.06921 16.11L6.50351 16.125L6.81078 15.8177L13.8662 8.76224Z" stroke="#A4B7AD" stroke-width="2"/>
<g id="Rectangle 924">
<mask id="path-2-outside-1_759_22619" maskUnits="userSpaceOnUse" x="7.77381" y="-1.82843" width="12.0208" height="12.0208" fill="black">
<rect fill="white" x="7.77381" y="-1.82843" width="12.0208" height="12.0208"/>
<path d="M11.7346 2.69603C12.6713 1.75934 14.19 1.75934 15.1267 2.69603Lnan nanL15.1267 2.69603C16.0634 3.63272 16.0634 5.15139 15.1267 6.08808L14.1091 7.10569L10.717 3.71364L11.7346 2.69603Z"/>
</mask>
<path d="M14.1091 7.10569L12.6949 8.51991L14.1091 9.93412L15.5233 8.51991L14.1091 7.10569ZM10.717 3.71364L9.30281 2.29943L7.8886 3.71364L9.30281 5.12785L10.717 3.71364ZM13.7125 4.67386L12.6949 5.69148L15.5233 8.51991L16.5409 7.50229L13.7125 4.67386ZM15.5233 5.69148L12.1312 2.29943L9.30281 5.12785L12.6949 8.51991L15.5233 5.69148ZM12.1312 5.12785L13.1489 4.11024L10.3204 1.28181L9.30281 2.29943L12.1312 5.12785ZM13.7125 4.11024C13.8681 4.26588 13.8681 4.51822 13.7125 4.67386L16.5409 7.50229C18.2586 5.78455 18.2586 2.99955 16.5409 1.28181L13.7125 4.11024ZM16.5409 1.28181C14.8232 -0.435925 12.0382 -0.435926 10.3204 1.28181L13.1489 4.11024C13.3045 3.9546 13.5568 3.9546 13.7125 4.11024L16.5409 1.28181Z" fill="#A4B7AD" mask="url(#path-2-outside-1_759_22619)"/>
</g>
</g>
</g>
</svg>
