<svg width="19" height="16" viewBox="0 0 19 16" fill="none" xmlns="http://www.w3.org/2000/svg">
<path d="M9.22857 12.5714C10.7276 12.5714 11.9429 11.2922 11.9429 9.71429C11.9429 8.13633 10.7276 6.85714 9.22857 6.85714C7.72951 6.85714 6.51429 8.13633 6.51429 9.71429C6.51429 11.2922 7.72951 12.5714 9.22857 12.5714Z" fill="#0BB76D"/>
<path fill-rule="evenodd" clip-rule="evenodd" d="M14.3082 1.71429C14.1816 0.732344 13.3851 0 12.4437 0H6.4478C5.5064 0 4.70988 0.732344 4.58328 1.71429C4.45668 2.69623 3.66015 3.42857 2.71876 3.42857H2.17143C0.972182 3.42857 0 4.45192 0 5.71429V13.7143C0 14.9767 0.972182 16 2.17143 16H16.8286C18.0278 16 19 14.9767 19 13.7143V5.71429C19 4.45192 18.0278 3.42857 16.8286 3.42857H16.1727C15.2313 3.42857 14.4348 2.69623 14.3082 1.71429ZM9.22857 14.2857C11.6271 14.2857 13.5714 12.239 13.5714 9.71429C13.5714 7.18956 11.6271 5.14286 9.22857 5.14286C6.83008 5.14286 4.88571 7.18956 4.88571 9.71429C4.88571 12.239 6.83008 14.2857 9.22857 14.2857ZM7.87143 1.71429C7.42171 1.71429 7.05714 2.09804 7.05714 2.57143C7.05714 3.04482 7.42171 3.42857 7.87143 3.42857H10.5857C11.0354 3.42857 11.4 3.04482 11.4 2.57143C11.4 2.09804 11.0354 1.71429 10.5857 1.71429H7.87143Z" fill="#0BB76D"/>
</svg>
