<svg width="25" height="25" viewBox="0 0 25 25" fill="none" xmlns="http://www.w3.org/2000/svg">
<path d="M12.1707 25C5.44886 25 -0.00030899 19.4036 -0.00030899 12.5C-0.00030899 5.59644 5.44886 0 12.1707 0C18.8926 0 24.3418 5.59644 24.3418 12.5C24.3418 19.4036 18.8926 25 12.1707 25Z" fill="#FF9900"/>
<path fill-rule="evenodd" clip-rule="evenodd" d="M13.1146 7.14296C12.9273 6.83028 12.4741 6.83028 12.2869 7.14296L10.8813 9.48961C10.5965 9.96503 9.9803 10.1196 9.50489 9.83481C9.02948 9.55005 8.87493 8.9338 9.15969 8.45839L10.5651 6.11202L10.5652 6.11188C11.5316 4.49815 13.87 4.49819 14.8363 6.112L16.458 8.82021L17.658 8.10161L17.7345 12.9032L13.5372 10.5693L14.7363 9.85126L13.1146 7.14296ZM9.19531 10.353L9.11875 15.1545L7.91858 14.4358L7.13971 15.7366L7.13968 15.7367C6.94676 16.0591 7.17919 16.4677 7.55349 16.4677H9.84797C10.4021 16.4677 10.8514 16.9169 10.8514 17.4711C10.8514 18.0253 10.4021 18.4745 9.84797 18.4745H7.55349C5.61921 18.4745 4.42456 16.365 5.41784 14.7058L6.19686 13.4048L4.99805 12.6869L9.19531 10.353ZM18.0132 13.369C18.4885 13.0841 19.1048 13.2386 19.3897 13.7139L19.9845 14.7066C20.9778 16.3658 19.7831 18.4753 17.8489 18.4753H15.4485V19.8727L11.2898 17.4712L15.4485 15.0697V16.4684H17.8489C18.223 16.4684 18.4554 16.0601 18.2629 15.7377L18.2628 15.7376L18.2626 15.7374L17.6682 14.7455C17.3834 14.2701 17.5378 13.6538 18.0132 13.369Z" fill="white"/>
</svg>
