<svg width="22" height="20" viewBox="0 0 22 20" fill="none" xmlns="http://www.w3.org/2000/svg">
<path fill-rule="evenodd" clip-rule="evenodd" d="M9.5 3.4359C5.5986 3.4359 2.4359 6.5986 2.4359 10.5C2.4359 14.4014 5.5986 17.5641 9.5 17.5641C12.281 17.5641 14.689 15.9572 15.8419 13.6158C16.139 13.0124 16.8691 12.764 17.4726 13.0612C18.076 13.3583 18.3244 14.0884 18.0272 14.6919C16.4801 17.8338 13.2442 20 9.5 20C4.25329 20 0 15.7467 0 10.5C0 5.25329 4.25329 1 9.5 1C12.9011 1 15.8836 2.7881 17.5602 5.46969L15.4948 6.76108C14.2446 4.76155 12.0266 3.4359 9.5 3.4359Z" fill="#0BB76D"/>
<path d="M18.0794 2.801C18.4486 2.56317 18.932 2.84292 18.9098 3.28151L18.6133 9.12461C18.5946 9.49279 18.2202 9.73401 17.8772 9.59882L12.4341 7.45317C12.0255 7.29212 11.9707 6.73628 12.3399 6.49845L18.0794 2.801Z" fill="#0BB76D"/>
</svg>
