<svg width="19" height="19" viewBox="0 0 19 19" fill="none" xmlns="http://www.w3.org/2000/svg">
<g id="Group 34164">
<path id="Ellipse 114 (Stroke)" fill-rule="evenodd" clip-rule="evenodd" d="M9.49995 6.34338C7.75683 6.34338 6.34375 7.75646 6.34375 9.49959C6.34375 11.2427 7.75683 12.6558 9.49995 12.6558C11.2431 12.6558 12.6562 11.2427 12.6562 9.49959C12.6562 7.75646 11.2431 6.34338 9.49995 6.34338ZM4.34375 9.49959C4.34375 6.65189 6.65226 4.34338 9.49995 4.34338C12.3476 4.34338 14.6562 6.65189 14.6562 9.49959C14.6562 12.3473 12.3476 14.6558 9.49995 14.6558C6.65226 14.6558 4.34375 12.3473 4.34375 9.49959Z" fill="#A4B7AD"/>
<path id="Line 68 (Stroke)" fill-rule="evenodd" clip-rule="evenodd" d="M9.90576 4.37114e-08C10.458 1.95703e-08 10.9058 0.447715 10.9058 1L10.9058 2.56246C10.9058 3.11474 10.458 3.56246 9.90576 3.56246C9.35348 3.56246 8.90576 3.11474 8.90576 2.56246L8.90576 1C8.90576 0.447715 9.35348 6.78525e-08 9.90576 4.37114e-08Z" fill="#A4B7AD"/>
<path id="Line 69 (Stroke)" fill-rule="evenodd" clip-rule="evenodd" d="M9.90576 15.4364C10.458 15.4364 10.9058 15.8841 10.9058 16.4364L10.9058 17.9989C10.9058 18.5511 10.458 18.9989 9.90576 18.9989C9.35348 18.9989 8.90576 18.5511 8.90576 17.9989L8.90576 16.4364C8.90576 15.8841 9.35348 15.4364 9.90576 15.4364Z" fill="#A4B7AD"/>
<path id="Line 70 (Stroke)" fill-rule="evenodd" clip-rule="evenodd" d="M18.9985 9.90564C18.9985 10.4579 18.5508 10.9056 17.9985 10.9056L16.4361 10.9056C15.8838 10.9056 15.4361 10.4579 15.4361 9.90564C15.4361 9.35335 15.8838 8.90564 16.4361 8.90564L17.9985 8.90564C18.5508 8.90564 18.9985 9.35335 18.9985 9.90564Z" fill="#A4B7AD"/>
<path id="Line 71 (Stroke)" fill-rule="evenodd" clip-rule="evenodd" d="M3.5625 9.90564C3.5625 10.4579 3.11478 10.9056 2.5625 10.9056L1.00004 10.9056C0.447756 10.9056 4.1008e-05 10.4579 4.1008e-05 9.90564C4.1008e-05 9.35335 0.447756 8.90564 1.00004 8.90564L2.5625 8.90564C3.11478 8.90564 3.5625 9.35335 3.5625 9.90564Z" fill="#A4B7AD"/>
<path id="Line 74 (Stroke)" fill-rule="evenodd" clip-rule="evenodd" d="M16.9233 2.89568C17.3138 3.2862 17.3138 3.91937 16.9233 4.30989L15.8184 5.41472C15.4279 5.80524 14.7947 5.80524 14.4042 5.41472C14.0137 5.02419 14.0137 4.39103 14.4042 4.0005L15.5091 2.89568C15.8996 2.50515 16.5327 2.50515 16.9233 2.89568Z" fill="#A4B7AD"/>
<path id="Line 75 (Stroke)" fill-rule="evenodd" clip-rule="evenodd" d="M5.41448 14.4046C5.805 14.7951 5.805 15.4283 5.41448 15.8188L4.30965 16.9236C3.91913 17.3142 3.28596 17.3142 2.89544 16.9236C2.50491 16.5331 2.50491 15.8999 2.89544 15.5094L4.00026 14.4046C4.39079 14.0141 5.02395 14.0141 5.41448 14.4046Z" fill="#A4B7AD"/>
<path id="Line 72 (Stroke)" fill-rule="evenodd" clip-rule="evenodd" d="M16.1031 16.9235C15.7126 17.314 15.0794 17.314 14.6889 16.9235L13.5841 15.8187C13.1935 15.4282 13.1935 14.795 13.5841 14.4045C13.9746 14.0139 14.6078 14.0139 14.9983 14.4045L16.1031 15.5093C16.4936 15.8998 16.4936 16.533 16.1031 16.9235Z" fill="#A4B7AD"/>
<path id="Line 73 (Stroke)" fill-rule="evenodd" clip-rule="evenodd" d="M4.59431 5.4146C4.20379 5.80512 3.57062 5.80512 3.1801 5.4146L2.07527 4.30977C1.68475 3.91925 1.68475 3.28608 2.07527 2.89556C2.4658 2.50503 3.09896 2.50503 3.48949 2.89556L4.59431 4.00038C4.98484 4.39091 4.98484 5.02407 4.59431 5.4146Z" fill="#A4B7AD"/>
</g>
</svg>
