<svg width="25" height="25" viewBox="0 0 25 25" fill="none" xmlns="http://www.w3.org/2000/svg">
<path d="M12.8289 25C6.10706 25 0.657894 19.4036 0.657894 12.5C0.657894 5.59644 6.10706 0 12.8289 0C19.5508 0 25 5.59644 25 12.5C25 19.4036 19.5508 25 12.8289 25Z" fill="#7D818D"/>
<path d="M17.381 14.6086L17.1195 15.1885C17.0221 15.405 16.8202 15.5424 16.5991 15.5424H12.7359C12.5148 15.5424 12.3129 15.405 12.2155 15.1885L11.954 14.6086C11.8566 14.3921 11.6547 14.2548 11.4336 14.2548H7.92988C7.57868 14.2548 7.30758 14.5934 7.35501 14.9733L7.77671 18.3543C7.8158 18.6683 8.06126 18.9019 8.35158 18.9019H20.9828C21.2731 18.9019 21.5186 18.6683 21.5577 18.3543L21.9794 14.9733C22.0268 14.5934 21.7563 14.2548 21.4045 14.2548H17.9008C17.6797 14.2548 17.4778 14.3921 17.3804 14.6086H17.381Z" fill="white"/>
<path d="M16.5069 11.1705L8.41954 9.3948C8.16768 9.33973 7.84211 9.8354 7.69214 10.5026C7.54217 11.1698 7.62421 11.7554 7.87607 11.8105L15.9634 13.5861C16.2153 13.6412 16.5408 13.1455 16.6908 12.4783C16.8408 11.8111 16.7587 11.2255 16.5069 11.1705Z" fill="white"/>
<path d="M6.84078 10.3161C6.96575 9.76219 7.21121 9.32603 7.43488 9.22601C7.45667 9.21652 7.45283 9.18297 7.42975 9.1779L3.02111 8.20999C2.76924 8.15492 2.44367 8.65058 2.2937 9.3178C2.14374 9.98502 2.22577 10.5706 2.47764 10.6257L6.88628 11.5936C6.90936 11.5986 6.9273 11.5701 6.91128 11.5524C6.7517 11.3676 6.71581 10.87 6.84078 10.3161Z" fill="white"/>
<path d="M16.8775 10.9167C16.7426 10.5546 16.9006 10.106 17.1503 9.82098C17.3278 9.59098 17.5825 9.39526 17.6619 9.16669C17.6727 9.13169 17.6756 9.10312 17.6785 9.07097C17.6821 9.05883 17.6785 9.03883 17.6785 9.02454C17.6778 9.00811 17.6814 8.99883 17.6785 8.9774C17.6749 8.88954 17.6727 8.8074 17.6251 8.73311C17.4122 8.38739 17.0608 7.96238 16.9757 7.49309C16.7873 6.64093 17.2896 5.68591 18.1316 5.43019C18.4109 5.33305 18.6223 5.3259 18.877 5.23447C19.0646 5.16947 19.1859 5.06304 19.354 4.90161C19.5603 5.49948 19.1151 5.99163 18.7414 6.38378C18.6064 6.54807 18.5523 6.6295 18.5552 6.79593C18.5552 6.87236 18.5552 6.95808 18.5812 7.03094C18.6541 7.18308 18.7017 7.23522 18.8301 7.42594C18.9434 7.5838 19.1216 7.88166 19.2024 8.13024C19.4269 8.8074 19.2162 9.61241 18.6634 10.0746C18.3409 10.3439 17.9924 10.431 17.641 10.5039C17.3307 10.5589 17.1113 10.6724 16.8768 10.9174L16.8775 10.9167Z" fill="white"/>
</svg>
