<svg width="18" height="14" viewBox="0 0 18 14" fill="none" xmlns="http://www.w3.org/2000/svg">
<g id="thum-down">
<path id="Vector" d="M7.84477 7.92544L4.47703 11.2232C4.17945 11.5146 4.17945 11.9869 4.47703 12.2775L6.01288 13.7814C6.31047 14.0729 6.79279 14.0729 7.0896 13.7814L12.845 8.1457C12.988 8.00567 13.0684 7.81645 13.0684 7.61815V0.745646C13.0684 0.3339 12.7275 0.000114441 12.307 0.000114441H2.01906C1.65345 0.000114441 1.33963 0.254427 1.27084 0.605621L0.0155735 7.03989C-0.0740881 7.49932 0.285332 7.92544 0.763787 7.92544H7.844H7.84477Z" fill="#000"/>
<path id="Vector_2" d="M16.9588 0.000190735H14.7767C14.3485 0.000190735 14.0011 0.314657 14.0011 0.70257V6.76442C14.0011 7.15233 14.3485 7.4668 14.7767 7.4668H16.9588C17.387 7.4668 17.7344 7.15233 17.7344 6.76442V0.70257C17.7344 0.314657 17.387 0.000190735 16.9588 0.000190735Z" fill="#000"/>
</g>
</svg>
