<svg width="18" height="14" viewBox="0 0 18 14" fill="none" xmlns="http://www.w3.org/2000/svg">
<g id="thum-up">
<path id="Vector" d="M9.8896 6.07456L13.2573 2.77682C13.5549 2.48542 13.5549 2.01312 13.2573 1.72248L11.7215 0.21855C11.4239 -0.07285 10.9416 -0.07285 10.6448 0.21855L4.8894 5.8543C4.7464 5.99433 4.66602 6.18355 4.66602 6.38185V13.2544C4.66602 13.6661 5.00689 13.9999 5.42737 13.9999H15.7153C16.0809 13.9999 16.3947 13.7456 16.4635 13.3944L17.7188 6.96011C17.8085 6.50068 17.449 6.07456 16.9706 6.07456H9.89038H9.8896Z" fill="#000"/>
<path id="Vector_2" d="M0.775599 13.9998H2.9577C3.3859 13.9998 3.7333 13.6853 3.7333 13.2974V7.23558C3.7333 6.84767 3.3859 6.5332 2.9577 6.5332H0.775599C0.347404 6.5332 0 6.84767 0 7.23558V13.2974C0 13.6853 0.347404 13.9998 0.775599 13.9998Z" fill="#000"/>
</g>
</svg>
