<svg width="16" height="15" viewBox="0 0 16 15" fill="none" xmlns="http://www.w3.org/2000/svg">
<path id="Union" fill-rule="evenodd" clip-rule="evenodd" d="M1.02261 7.5985C1.04517 7.70008 1.09769 7.79632 1.18018 7.87299L5.05811 11.4785C5.27399 11.679 5.61088 11.6667 5.81184 11.4514H5.81189C5.81188 11.4514 5.81186 11.4514 5.81185 11.4514C5.61089 11.6667 5.274 11.679 5.05812 11.4786L1.18019 7.87304C1.09769 7.79635 1.04516 7.7001 1.02261 7.5985ZM2.89823 8.01421L2.89818 8.01417H10.7009C10.9953 8.01417 11.234 7.77551 11.234 7.48112C11.234 7.45114 11.2315 7.42175 11.2268 7.39313C11.2315 7.42176 11.234 7.45117 11.234 7.48116C11.234 7.77555 10.9953 8.01421 10.701 8.01421H2.89823ZM2.90066 6.94807H2.90061L5.78519 4.26638C5.90661 4.15336 5.96362 3.99716 5.95451 3.84371C5.96364 3.99718 5.90663 4.15339 5.7852 4.26643L2.90066 6.94807ZM4.81566 3.22324C5.17578 2.8889 5.73894 2.90905 6.0738 3.26882C6.40928 3.62924 6.38846 4.1928 6.02837 4.528L3.80931 6.59097H10.701C11.1926 6.59097 11.5911 6.98952 11.5911 7.48116C11.5911 7.9728 11.1926 8.37135 10.701 8.37135H3.80714L6.02819 10.4354C6.38894 10.7703 6.40911 11.3345 6.0738 11.6947L5.96786 11.8085H5.94483C5.60726 12.0541 5.13253 12.035 4.81493 11.7401L0.937 8.13459C0.557985 7.78224 0.558024 7.18237 0.937026 6.83001L4.81566 3.22324ZM14.2196 2.373C14.2196 2.04575 13.9543 1.78038 13.627 1.78038H8.5C8.00836 1.78038 7.60981 1.38183 7.60981 0.890192C7.60981 0.398553 8.00836 0 8.5 0H13.627C14.9375 0 16 1.06242 16 2.373V12.627C16 13.9376 14.9375 15 13.627 15H8.5C8.00836 15 7.60981 14.6014 7.60981 14.1098C7.60981 13.6182 8.00836 13.2196 8.5 13.2196H13.627C13.9543 13.2196 14.2196 12.9542 14.2196 12.627V2.373ZM8.0114 14.3233C8.09372 14.5114 8.28151 14.6428 8.49999 14.6428H13.6269C14.7403 14.6428 15.6428 13.7403 15.6428 12.627V2.37296C15.6428 2.2001 15.6211 2.03232 15.5802 1.87221C15.6211 2.03233 15.6429 2.20012 15.6429 2.373V12.627C15.6429 13.7403 14.7403 14.6429 13.627 14.6429H8.5C8.2815 14.6429 8.09371 14.5114 8.0114 14.3233ZM14.5476 2.13848C14.4432 1.72738 14.0706 1.42324 13.627 1.42324H8.5C8.25045 1.42324 8.04095 1.25175 7.98292 1.02019C8.04096 1.25173 8.25045 1.4232 8.49999 1.4232H13.6269C14.0706 1.4232 14.4432 1.72736 14.5476 2.13848Z" fill="#A4B7AD"/>
</svg>
