<svg width="249" height="362" viewBox="0 0 249 362" fill="none" xmlns="http://www.w3.org/2000/svg">
<g filter="url(#filter0_d_1725_4771)">
<path d="M4.00014 47.9735C4.00014 37.2992 12.6388 28.6828 23.1719 29.009C32.7969 29.3039 40.7146 37.2263 41.1771 47.04C41.6192 56.4199 35.3817 64.3943 26.8961 66.4417C26.539 66.5285 26.2057 66.7055 25.9472 66.9727L23.8045 69.1519C23.1379 69.8286 22.0632 69.8286 21.3966 69.1519L19.2539 66.9727C18.992 66.7089 18.6621 66.5285 18.305 66.4417C10.105 64.4637 4.00355 56.9473 4.00355 47.9735H4.00014Z" fill="white"/>
<path d="M22.4723 64.4692C13.6334 64.4692 6.46806 57.1102 6.46806 48.0324C6.46806 38.9546 13.6334 31.5956 22.4723 31.5956C31.3112 31.5956 38.4766 38.9546 38.4766 48.0324C38.4766 57.1102 31.3112 64.4692 22.4723 64.4692Z" fill="#854D0C"/>
</g>
<path fill-rule="evenodd" clip-rule="evenodd" d="M26.9306 35.8364C27.3493 35.6721 27.8219 35.8813 27.9848 36.3046C28.1477 36.7269 27.9403 37.2036 27.5207 37.3679L24.148 38.6912C23.736 38.8526 23.4641 39.2539 23.4641 39.7001V42.1249H21.8351V38.8918C21.8351 38.2555 22.2225 37.6842 22.8106 37.453L26.9306 35.8364ZM29.9917 43.4558C29.9917 42.7207 29.401 42.1249 28.6723 42.1249H16.6201C15.8915 42.1249 15.3008 42.7207 15.3008 43.4558C15.3008 44.1908 15.8915 44.7866 16.6201 44.7866H28.6723C29.401 44.7866 29.9917 44.1908 29.9917 43.4558ZM27.1105 57.6453C26.9808 58.6417 26.1397 59.3879 25.1424 59.3879H19.9001C18.9037 59.3879 18.0607 58.6427 17.931 57.6453L16.2631 45.951H28.7784L27.1105 57.6453Z" fill="white"/>
<g filter="url(#filter1_d_1725_4771)">
<path d="M43.0001 204.973C43.0001 194.299 51.6388 185.683 62.1719 186.009C71.7969 186.304 79.7146 194.226 80.1771 204.04C80.6192 213.42 74.3817 221.394 65.8961 223.442C65.539 223.528 65.2057 223.705 64.9472 223.973L62.8045 226.152C62.1379 226.829 61.0632 226.829 60.3966 226.152L58.2539 223.973C57.992 223.709 57.6621 223.528 57.305 223.442C49.105 221.464 43.0035 213.947 43.0035 204.973H43.0001Z" fill="white"/>
<path d="M61.4723 221.469C52.6334 221.469 45.4681 214.11 45.4681 205.032C45.4681 195.955 52.6334 188.596 61.4723 188.596C70.3112 188.596 77.4766 195.955 77.4766 205.032C77.4766 214.11 70.3112 221.469 61.4723 221.469Z" fill="#0A7B4B"/>
<path d="M68.3094 198.652H54.0883C53.4765 198.652 52.9805 199.155 52.9805 199.776V199.778C52.9805 200.399 53.4765 200.902 54.0883 200.902H68.3094C68.9213 200.902 69.4173 200.399 69.4173 199.778V199.776C69.4173 199.155 68.9213 198.652 68.3094 198.652Z" fill="white"/>
<path d="M64.0854 194.588H58.6254C58.0136 194.588 57.5176 195.091 57.5176 195.712V195.714C57.5176 196.334 58.0136 196.837 58.6254 196.837H64.0854C64.6972 196.837 65.1932 196.334 65.1932 195.714V195.712C65.1932 195.091 64.6972 194.588 64.0854 194.588Z" fill="white"/>
<path d="M54.7949 202.716V213.074C54.7949 214.427 55.8763 215.523 57.2098 215.523H65.4628C66.7963 215.523 67.8777 214.427 67.8777 213.074V202.716H54.7949ZM59.8483 212.835C59.8483 213.291 59.4845 213.66 59.0352 213.66C58.586 213.66 58.2221 213.291 58.2221 212.835V205.402C58.2221 204.947 58.586 204.578 59.0352 204.578C59.4845 204.578 59.8483 204.947 59.8483 205.402V212.835ZM64.4505 212.835C64.4505 213.291 64.0866 213.66 63.6374 213.66C63.1881 213.66 62.8243 213.291 62.8243 212.835V205.402C62.8243 204.947 63.1881 204.578 63.6374 204.578C64.0866 204.578 64.4505 204.947 64.4505 205.402V212.835Z" fill="white"/>
</g>
<g filter="url(#filter2_d_1725_4771)">
<path d="M122 20.9733C122 10.2991 130.639 1.68265 141.172 2.00884C150.797 2.30381 158.715 10.2262 159.177 20.0399C159.619 29.4198 153.382 37.3942 144.896 39.4416C144.539 39.5284 144.206 39.7053 143.947 39.9726L141.805 42.1518C141.138 42.8285 140.063 42.8285 139.397 42.1518L137.254 39.9726C136.992 39.7088 136.662 39.5284 136.305 39.4416C128.105 37.4636 122.004 29.9472 122.004 20.9733H122Z" fill="white"/>
<path d="M140.472 37.4691C131.633 37.4691 124.468 30.1101 124.468 21.0323C124.468 11.9545 131.633 4.59552 140.472 4.59552C149.311 4.59552 156.477 11.9545 156.477 21.0323C156.477 30.1101 149.311 37.4691 140.472 37.4691Z" fill="#FF9900"/>
</g>
<path fill-rule="evenodd" clip-rule="evenodd" d="M141.714 13.9882C141.467 13.577 140.872 13.577 140.625 13.9882L138.777 17.0739C138.403 17.6991 137.592 17.9023 136.967 17.5278C136.342 17.1534 136.139 16.3431 136.513 15.7179L138.361 12.6326L138.361 12.6324C139.632 10.5104 142.707 10.5105 143.978 12.6326L146.11 16.1938L147.688 15.2489L147.789 21.5627L142.269 18.4938L143.846 17.5495L141.714 13.9882ZM136.56 18.2087L136.46 24.5225L134.881 23.5774L133.857 25.288L133.857 25.2881C133.603 25.712 133.909 26.2494 134.401 26.2494H137.418C138.147 26.2494 138.738 26.8401 138.738 27.5688C138.738 28.2975 138.147 28.8882 137.418 28.8882H134.401C131.858 28.8882 130.287 26.1143 131.593 23.9326L132.617 22.2216L131.041 21.2776L136.56 18.2087ZM148.155 22.1752C148.78 21.8007 149.59 22.0037 149.965 22.6288L150.747 23.9341C152.053 26.1158 150.482 28.8897 147.939 28.8897H144.783V30.7266L139.314 27.5687L144.783 24.4108V26.2508H147.939C148.431 26.2508 148.737 25.7138 148.483 25.29L148.483 25.2898L148.483 25.2895L147.702 23.9852C147.327 23.3602 147.53 22.5498 148.155 22.1752Z" fill="white"/>
<g filter="url(#filter3_d_1725_4771)">
<path d="M173 333.973C173 323.299 181.639 314.683 192.172 315.009C201.797 315.304 209.715 323.226 210.177 333.04C210.619 342.42 204.382 350.394 195.896 352.442C195.539 352.528 195.206 352.705 194.947 352.973L192.805 355.152C192.138 355.829 191.063 355.829 190.397 355.152L188.254 352.973C187.992 352.709 187.662 352.528 187.305 352.442C179.105 350.464 173.004 342.947 173.004 333.973H173Z" fill="white"/>
</g>
<path d="M191.472 350.469C182.633 350.469 175.468 343.11 175.468 334.032C175.468 324.955 182.633 317.596 191.472 317.596C200.311 317.596 207.477 324.955 207.477 334.032C207.477 343.11 200.311 350.469 191.472 350.469Z" fill="#7D818D"/>
<path d="M197.456 336.805L197.113 337.567C196.984 337.852 196.719 338.033 196.428 338.033H191.348C191.058 338.033 190.792 337.852 190.664 337.567L190.32 336.805C190.192 336.52 189.927 336.339 189.636 336.339H185.029C184.567 336.339 184.21 336.785 184.273 337.284L184.827 341.73C184.879 342.143 185.201 342.45 185.583 342.45H202.192C202.574 342.45 202.897 342.143 202.948 341.73L203.503 337.284C203.565 336.785 203.21 336.339 202.747 336.339H198.14C197.849 336.339 197.584 336.52 197.456 336.805H197.456Z" fill="white"/>
<path d="M196.307 332.284L185.672 329.949C185.341 329.876 184.913 330.528 184.716 331.405C184.519 332.283 184.626 333.053 184.958 333.125L195.592 335.46C195.923 335.532 196.351 334.881 196.548 334.003C196.746 333.126 196.638 332.356 196.307 332.284Z" fill="white"/>
<path d="M183.597 331.16C183.762 330.431 184.084 329.858 184.378 329.726C184.407 329.714 184.402 329.67 184.372 329.663L178.575 328.39C178.243 328.318 177.815 328.97 177.618 329.847C177.421 330.724 177.529 331.494 177.86 331.567L183.657 332.84C183.687 332.846 183.711 332.809 183.69 332.785C183.48 332.542 183.433 331.888 183.597 331.16Z" fill="white"/>
<path d="M196.795 331.95C196.618 331.473 196.826 330.884 197.154 330.509C197.388 330.206 197.722 329.949 197.827 329.648C197.841 329.602 197.845 329.565 197.849 329.523C197.853 329.507 197.849 329.48 197.849 329.462C197.848 329.44 197.852 329.428 197.849 329.4C197.844 329.284 197.841 329.176 197.778 329.078C197.499 328.624 197.036 328.065 196.924 327.448C196.677 326.327 197.337 325.071 198.445 324.735C198.812 324.607 199.09 324.598 199.425 324.478C199.671 324.392 199.831 324.252 200.052 324.04C200.323 324.826 199.738 325.473 199.246 325.989C199.069 326.205 198.998 326.312 199.001 326.531C199.001 326.632 199.001 326.744 199.036 326.84C199.131 327.04 199.194 327.109 199.363 327.359C199.512 327.567 199.746 327.959 199.853 328.286C200.148 329.176 199.871 330.235 199.144 330.842C198.72 331.196 198.261 331.311 197.799 331.407C197.391 331.479 197.103 331.628 196.795 331.951L196.795 331.95Z" fill="white"/>
<g filter="url(#filter4_d_1725_4771)">
<path d="M207 92.9735C207 82.2992 215.639 73.6828 226.172 74.009C235.797 74.3039 243.715 82.2263 244.177 92.04C244.619 101.42 238.382 109.394 229.896 111.442C229.539 111.528 229.206 111.705 228.947 111.973L226.805 114.152C226.138 114.829 225.063 114.829 224.397 114.152L222.254 111.973C221.992 111.709 221.662 111.528 221.305 111.442C213.105 109.464 207.004 101.947 207.004 92.9735H207Z" fill="white"/>
<path d="M225.472 109.469C216.633 109.469 209.468 102.11 209.468 93.0324C209.468 83.9546 216.633 76.5956 225.472 76.5956C234.311 76.5956 241.477 83.9546 241.477 93.0324C241.477 102.11 234.311 109.469 225.472 109.469Z" fill="#0A7B4B"/>
<path d="M232.309 86.6523H218.088C217.476 86.6523 216.98 87.1554 216.98 87.7759V87.778C216.98 88.3986 217.476 88.9017 218.088 88.9017H232.309C232.921 88.9017 233.417 88.3986 233.417 87.778V87.7759C233.417 87.1554 232.921 86.6523 232.309 86.6523Z" fill="white"/>
<path d="M228.085 82.5878H222.625C222.014 82.5878 221.518 83.0908 221.518 83.7114V83.7135C221.518 84.3341 222.014 84.8371 222.625 84.8371H228.085C228.697 84.8371 229.193 84.3341 229.193 83.7135V83.7114C229.193 83.0908 228.697 82.5878 228.085 82.5878Z" fill="white"/>
<path d="M218.795 90.7156V101.074C218.795 102.426 219.876 103.523 221.21 103.523H229.463C230.796 103.523 231.878 102.426 231.878 101.074V90.7156H218.795ZM223.848 100.835C223.848 101.29 223.484 101.659 223.035 101.659C222.586 101.659 222.222 101.29 222.222 100.835V93.4021C222.222 92.9465 222.586 92.5774 223.035 92.5774C223.484 92.5774 223.848 92.9465 223.848 93.4021V100.835ZM228.45 100.835C228.45 101.29 228.087 101.659 227.637 101.659C227.188 101.659 226.824 101.29 226.824 100.835V93.4021C226.824 92.9465 227.188 92.5774 227.637 92.5774C228.087 92.5774 228.45 92.9465 228.45 93.4021V100.835Z" fill="white"/>
</g>
<defs>
<filter id="filter0_d_1725_4771" x="0" y="27" width="45.1992" height="48.6595" filterUnits="userSpaceOnUse" color-interpolation-filters="sRGB">
<feFlood flood-opacity="0" result="BackgroundImageFix"/>
<feColorMatrix in="SourceAlpha" type="matrix" values="0 0 0 0 0 0 0 0 0 0 0 0 0 0 0 0 0 0 127 0" result="hardAlpha"/>
<feOffset dy="2"/>
<feGaussianBlur stdDeviation="2"/>
<feComposite in2="hardAlpha" operator="out"/>
<feColorMatrix type="matrix" values="0 0 0 0 0 0 0 0 0 0 0 0 0 0 0 0 0 0 0.25 0"/>
<feBlend mode="normal" in2="BackgroundImageFix" result="effect1_dropShadow_1725_4771"/>
<feBlend mode="normal" in="SourceGraphic" in2="effect1_dropShadow_1725_4771" result="shape"/>
</filter>
<filter id="filter1_d_1725_4771" x="39" y="184" width="45.1992" height="48.6595" filterUnits="userSpaceOnUse" color-interpolation-filters="sRGB">
<feFlood flood-opacity="0" result="BackgroundImageFix"/>
<feColorMatrix in="SourceAlpha" type="matrix" values="0 0 0 0 0 0 0 0 0 0 0 0 0 0 0 0 0 0 127 0" result="hardAlpha"/>
<feOffset dy="2"/>
<feGaussianBlur stdDeviation="2"/>
<feComposite in2="hardAlpha" operator="out"/>
<feColorMatrix type="matrix" values="0 0 0 0 0 0 0 0 0 0 0 0 0 0 0 0 0 0 0.25 0"/>
<feBlend mode="normal" in2="BackgroundImageFix" result="effect1_dropShadow_1725_4771"/>
<feBlend mode="normal" in="SourceGraphic" in2="effect1_dropShadow_1725_4771" result="shape"/>
</filter>
<filter id="filter2_d_1725_4771" x="118" y="-0.00012207" width="45.1992" height="48.6595" filterUnits="userSpaceOnUse" color-interpolation-filters="sRGB">
<feFlood flood-opacity="0" result="BackgroundImageFix"/>
<feColorMatrix in="SourceAlpha" type="matrix" values="0 0 0 0 0 0 0 0 0 0 0 0 0 0 0 0 0 0 127 0" result="hardAlpha"/>
<feOffset dy="2"/>
<feGaussianBlur stdDeviation="2"/>
<feComposite in2="hardAlpha" operator="out"/>
<feColorMatrix type="matrix" values="0 0 0 0 0 0 0 0 0 0 0 0 0 0 0 0 0 0 0.25 0"/>
<feBlend mode="normal" in2="BackgroundImageFix" result="effect1_dropShadow_1725_4771"/>
<feBlend mode="normal" in="SourceGraphic" in2="effect1_dropShadow_1725_4771" result="shape"/>
</filter>
<filter id="filter3_d_1725_4771" x="169" y="313" width="45.1992" height="48.6594" filterUnits="userSpaceOnUse" color-interpolation-filters="sRGB">
<feFlood flood-opacity="0" result="BackgroundImageFix"/>
<feColorMatrix in="SourceAlpha" type="matrix" values="0 0 0 0 0 0 0 0 0 0 0 0 0 0 0 0 0 0 127 0" result="hardAlpha"/>
<feOffset dy="2"/>
<feGaussianBlur stdDeviation="2"/>
<feComposite in2="hardAlpha" operator="out"/>
<feColorMatrix type="matrix" values="0 0 0 0 0 0 0 0 0 0 0 0 0 0 0 0 0 0 0.25 0"/>
<feBlend mode="normal" in2="BackgroundImageFix" result="effect1_dropShadow_1725_4771"/>
<feBlend mode="normal" in="SourceGraphic" in2="effect1_dropShadow_1725_4771" result="shape"/>
</filter>
<filter id="filter4_d_1725_4771" x="203" y="72" width="45.1992" height="48.6595" filterUnits="userSpaceOnUse" color-interpolation-filters="sRGB">
<feFlood flood-opacity="0" result="BackgroundImageFix"/>
<feColorMatrix in="SourceAlpha" type="matrix" values="0 0 0 0 0 0 0 0 0 0 0 0 0 0 0 0 0 0 127 0" result="hardAlpha"/>
<feOffset dy="2"/>
<feGaussianBlur stdDeviation="2"/>
<feComposite in2="hardAlpha" operator="out"/>
<feColorMatrix type="matrix" values="0 0 0 0 0 0 0 0 0 0 0 0 0 0 0 0 0 0 0.25 0"/>
<feBlend mode="normal" in2="BackgroundImageFix" result="effect1_dropShadow_1725_4771"/>
<feBlend mode="normal" in="SourceGraphic" in2="effect1_dropShadow_1725_4771" result="shape"/>
</filter>
</defs>
</svg>
