<svg width="121" height="121" viewBox="0 0 121 121" fill="none" xmlns="http://www.w3.org/2000/svg">
<g id="Group 34102">
<circle id="Ellipse 109" cx="60.5" cy="60.5" r="60.5" fill="#0BB76D"/>
<g id="Group 34099">
<g id="Group 34101">
<g id="Group 34098">
<path id="Vector" d="M36.1895 52.0875V83.6979C36.1895 87.8254 39.4202 91.1727 43.4041 91.1727H68.06C72.0438 91.1727 75.2746 87.8254 75.2746 83.6979V52.0875H36.1895ZM51.2867 82.9681C51.2867 84.3586 50.1996 85.4848 48.8575 85.4848C47.5154 85.4848 46.4284 84.3586 46.4284 82.9681V60.2858C46.4284 58.8953 47.5154 57.7691 48.8575 57.7691C50.1996 57.7691 51.2867 58.8953 51.2867 60.2858V82.9681ZM65.0357 82.9681C65.0357 84.3586 63.9487 85.4848 62.6066 85.4848C61.2644 85.4848 60.1774 84.3586 60.1774 82.9681V60.2858C60.1774 58.8953 61.2644 57.7691 62.6066 57.7691C63.9487 57.7691 65.0357 58.8953 65.0357 60.2858V82.9681Z" fill="white"/>
<path id="Line 62 (Stroke)" fill-rule="evenodd" clip-rule="evenodd" d="M28 45.3216C28 42.9861 29.8933 41.0929 32.2287 41.0929H79.7647C82.1002 41.0929 83.9934 42.9861 83.9934 45.3216C83.9934 47.657 82.1002 49.5503 79.7647 49.5503H32.2287C29.8933 49.5503 28 47.657 28 45.3216Z" fill="white"/>
<path id="Line 63 (Stroke)" fill-rule="evenodd" clip-rule="evenodd" d="M37.2422 34.2287C37.2422 31.8933 39.1354 30 41.4709 30H71.0488C73.3843 30 75.2775 31.8933 75.2775 34.2287C75.2775 36.5641 73.3843 38.4574 71.0488 38.4574H41.4709C39.1354 38.4574 37.2422 36.5641 37.2422 34.2287Z" fill="white"/>
</g>
<g id="Group 34100">
<g id="Group 34082">
<circle id="Ellipse 93" cx="84.5" cy="79.5" r="17.5" fill="#0BB76D"/>
</g>
<g id="Group 34073">
<path id="Vector (Stroke)" fill-rule="evenodd" clip-rule="evenodd" d="M83.5234 72.7111C80.3134 72.7111 77.7112 75.3134 77.7112 78.5234C77.7112 81.7333 80.3134 84.3356 83.5234 84.3356C86.7334 84.3356 89.3356 81.7333 89.3356 78.5234C89.3356 75.3134 86.7334 72.7111 83.5234 72.7111ZM74.166 78.5234C74.166 73.3554 78.3555 69.1659 83.5234 69.1659C88.6914 69.1659 92.8809 73.3554 92.8809 78.5234C92.8809 83.6913 88.6914 87.8808 83.5234 87.8808C78.3555 87.8808 74.166 83.6913 74.166 78.5234Z" fill="white"/>
<path id="Vector (Stroke)_2" fill-rule="evenodd" clip-rule="evenodd" d="M88.1837 83.1838C88.8531 82.5144 89.9384 82.5144 90.6077 83.1838L95.4973 88.0733C96.1667 88.7427 96.1667 89.828 95.4973 90.4974C94.8279 91.1668 93.7426 91.1668 93.0732 90.4974L88.1837 85.6078C87.5143 84.9385 87.5143 83.8532 88.1837 83.1838Z" fill="white"/>
</g>
</g>
</g>
</g>
</g>
</svg>
